<svg width="36" height="36" viewBox="0 0 36 36" fill="none" xmlns="http://www.w3.org/2000/svg">
<path d="M11.4545 15.8636H4.90909C3.73973 15.8636 2.61826 15.3991 1.79139 14.5722C0.964528 13.7454 0.5 12.6239 0.5 11.4545V4.90909C0.5 3.73973 0.964528 2.61826 1.79139 1.79139C2.61826 0.964528 3.73973 0.5 4.90909 0.5H11.4545C12.6239 0.5 13.7454 0.964528 14.5722 1.79139C15.3991 2.61826 15.8636 3.73973 15.8636 4.90909V11.4545C15.8636 12.6239 15.3991 13.7454 14.5722 14.5722C13.7454 15.3991 12.6239 15.8636 11.4545 15.8636ZM4.90909 2.77273C4.34249 2.77273 3.7991 2.99781 3.39845 3.39845C2.99781 3.7991 2.77273 4.34249 2.77273 4.90909V11.4545C2.77273 12.0211 2.99781 12.5645 3.39845 12.9652C3.7991 13.3658 4.34249 13.5909 4.90909 13.5909H11.4545C12.0211 13.5909 12.5645 13.3658 12.9652 12.9652C13.3658 12.5645 13.5909 12.0211 13.5909 11.4545V4.90909C13.5909 4.34249 13.3658 3.7991 12.9652 3.39845C12.5645 2.99781 12.0211 2.77273 11.4545 2.77273H4.90909ZM31.0909 15.8636H24.5455C23.3761 15.8636 22.2546 15.3991 21.4278 14.5722C20.6009 13.7454 20.1364 12.6239 20.1364 11.4545V4.90909C20.1364 3.73973 20.6009 2.61826 21.4278 1.79139C22.2546 0.964528 23.3761 0.5 24.5455 0.5H31.0909C32.2603 0.5 33.3817 0.964528 34.2086 1.79139C35.0355 2.61826 35.5 3.73973 35.5 4.90909V11.4545C35.5 12.6239 35.0355 13.7454 34.2086 14.5722C33.3817 15.3991 32.2603 15.8636 31.0909 15.8636ZM24.5455 2.77273C23.9789 2.77273 23.4355 2.99781 23.0348 3.39845C22.6342 3.7991 22.4091 4.34249 22.4091 4.90909V11.4545C22.4091 12.0211 22.6342 12.5645 23.0348 12.9652C23.4355 13.3658 23.9789 13.5909 24.5455 13.5909H31.0909C31.6575 13.5909 32.2009 13.3658 32.6015 12.9652C33.0022 12.5645 33.2273 12.0211 33.2273 11.4545V4.90909C33.2273 4.34249 33.0022 3.7991 32.6015 3.39845C32.2009 2.99781 31.6575 2.77273 31.0909 2.77273H24.5455ZM11.4545 35.5H4.90909C3.73973 35.5 2.61826 35.0355 1.79139 34.2086C0.964528 33.3817 0.5 32.2603 0.5 31.0909V24.5455C0.5 23.3761 0.964528 22.2546 1.79139 21.4278C2.61826 20.6009 3.73973 20.1364 4.90909 20.1364H11.4545C12.6239 20.1364 13.7454 20.6009 14.5722 21.4278C15.3991 22.2546 15.8636 23.3761 15.8636 24.5455V31.0909C15.8636 32.2603 15.3991 33.3817 14.5722 34.2086C13.7454 35.0355 12.6239 35.5 11.4545 35.5ZM4.90909 22.4091C4.34249 22.4091 3.7991 22.6342 3.39845 23.0348C2.99781 23.4355 2.77273 23.9789 2.77273 24.5455V31.0909C2.77273 31.6575 2.99781 32.2009 3.39845 32.6015C3.7991 33.0022 4.34249 33.2273 4.90909 33.2273H11.4545C12.0211 33.2273 12.5645 33.0022 12.9652 32.6015C13.3658 32.2009 13.5909 31.6575 13.5909 31.0909V24.5455C13.5909 23.9789 13.3658 23.4355 12.9652 23.0348C12.5645 22.6342 12.0211 22.4091 11.4545 22.4091H4.90909ZM31.0909 35.5H24.5455C23.3761 35.5 22.2546 35.0355 21.4278 34.2086C20.6009 33.3817 20.1364 32.2603 20.1364 31.0909V24.5455C20.1364 23.3761 20.6009 22.2546 21.4278 21.4278C22.2546 20.6009 23.3761 20.1364 24.5455 20.1364H31.0909C32.2603 20.1364 33.3817 20.6009 34.2086 21.4278C35.0355 22.2546 35.5 23.3761 35.5 24.5455V31.0909C35.5 32.2603 35.0355 33.3817 34.2086 34.2086C33.3817 35.0355 32.2603 35.5 31.0909 35.5ZM24.5455 22.4091C23.9789 22.4091 23.4355 22.6342 23.0348 23.0348C22.6342 23.4355 22.4091 23.9789 22.4091 24.5455V31.0909C22.4091 31.6575 22.6342 32.2009 23.0348 32.6015C23.4355 33.0022 23.9789 33.2273 24.5455 33.2273H31.0909C31.6575 33.2273 32.2009 33.0022 32.6015 32.6015C33.0022 32.2009 33.2273 31.6575 33.2273 31.0909V24.5455C33.2273 23.9789 33.0022 23.4355 32.6015 23.0348C32.2009 22.6342 31.6575 22.4091 31.0909 22.4091H24.5455Z" fill="#73C7EC" stroke="#73C7EC"/>
</svg>
