<svg width="38" height="38" viewBox="0 0 38 38" fill="none" xmlns="http://www.w3.org/2000/svg">
<path d="M31.0037 37H6.99625C5.40595 37 3.88078 36.3683 2.75626 35.2437C1.63175 34.1192 1 32.5941 1 31.0037V6.99625C1.00297 5.40686 1.63567 3.88342 2.75955 2.75955C3.88342 1.63567 5.40686 1.00297 6.99625 1H31.0037C32.5931 1.00297 34.1166 1.63567 35.2405 2.75955C36.3643 3.88342 36.997 5.40686 37 6.99625V31.0037C37 32.5941 36.3683 34.1192 35.2437 35.2437C34.1192 36.3683 32.5941 37 31.0037 37ZM3.39625 13.0037V31.0037C3.39625 31.9585 3.77553 32.8742 4.45067 33.5493C5.1258 34.2245 6.04147 34.6038 6.99625 34.6038H31.0037C31.9585 34.6038 32.8742 34.2245 33.5493 33.5493C34.2245 32.8742 34.6038 31.9585 34.6038 31.0037V13.0037H3.39625ZM3.39625 10.6075H34.6038V6.99625C34.6038 6.04147 34.2245 5.1258 33.5493 4.45067C32.8742 3.77553 31.9585 3.39625 31.0037 3.39625H6.99625C6.04147 3.39625 5.1258 3.77553 4.45067 4.45067C3.77553 5.1258 3.39625 6.04147 3.39625 6.99625V10.6075Z" fill="#73C7EC" stroke="#081D3C"/>
<path fill-rule="evenodd" clip-rule="evenodd" d="M29.8002 5.80469C30.0383 5.80469 30.271 5.87529 30.469 6.00756C30.6669 6.13982 30.8212 6.32782 30.9123 6.54778C31.0034 6.76774 31.0273 7.00977 30.9808 7.24327C30.9344 7.47678 30.8197 7.69127 30.6514 7.85961C30.483 8.02796 30.2685 8.14261 30.035 8.18905C29.8015 8.2355 29.5595 8.21166 29.3395 8.12055C29.1196 8.02944 28.9316 7.87516 28.7993 7.6772C28.667 7.47925 28.5964 7.24651 28.5964 7.00844C28.5964 6.68918 28.7233 6.383 28.949 6.15726C29.1748 5.93151 29.4809 5.80469 29.8002 5.80469Z" fill="#73C7EC" stroke="#081D3C"/>
<path fill-rule="evenodd" clip-rule="evenodd" d="M24.994 5.80469C25.2321 5.80469 25.4648 5.87529 25.6628 6.00756C25.8607 6.13982 26.015 6.32782 26.1061 6.54778C26.1972 6.76774 26.2211 7.00977 26.1746 7.24327C26.1282 7.47678 26.0135 7.69127 25.8452 7.85961C25.6768 8.02796 25.4624 8.14261 25.2289 8.18905C24.9954 8.2355 24.7533 8.21166 24.5334 8.12055C24.3134 8.02944 24.1254 7.87516 23.9931 7.6772C23.8609 7.47925 23.7903 7.24651 23.7903 7.00844C23.7903 6.68918 23.9171 6.383 24.1429 6.15726C24.3686 5.93151 24.6748 5.80469 24.994 5.80469Z" fill="#73C7EC" stroke="#081D3C"/>
<path d="M13.0061 32.1956C12.0561 32.1956 11.1273 31.9139 10.3373 31.3861C9.54735 30.8582 8.93164 30.108 8.56806 29.2302C8.20447 28.3524 8.10934 27.3866 8.2947 26.4547C8.48005 25.5229 8.93756 24.6669 9.60938 23.9951C10.2812 23.3233 11.1371 22.8658 12.069 22.6804C13.0008 22.4951 13.9667 22.5902 14.8445 22.9538C15.7222 23.3174 16.4725 23.9331 17.0003 24.7231C17.5282 25.513 17.8099 26.4418 17.8099 27.3919C17.8099 28.6659 17.3038 29.8878 16.4029 30.7887C15.502 31.6895 14.2802 32.1956 13.0061 32.1956ZM13.0061 24.9956C12.5322 24.9956 12.0689 25.1362 11.6749 25.3995C11.2808 25.6628 10.9737 26.037 10.7923 26.4749C10.6109 26.9127 10.5635 27.3945 10.6559 27.8594C10.7484 28.3242 10.9766 28.7512 11.3117 29.0863C11.6469 29.4214 12.0738 29.6496 12.5387 29.7421C13.0035 29.8346 13.4853 29.7871 13.9232 29.6057C14.361 29.4244 14.7353 29.1172 14.9986 28.7232C15.2619 28.3291 15.4024 27.8658 15.4024 27.3919C15.3994 26.7573 15.146 26.1495 14.6973 25.7008C14.2485 25.252 13.6408 24.9986 13.0061 24.9956Z" fill="#73C7EC" stroke="#081D3C"/>
<path d="M24.9964 32.1956C24.0463 32.1956 23.1175 31.9139 22.3276 31.3861C21.5376 30.8582 20.9219 30.108 20.5583 29.2302C20.1947 28.3524 20.0996 27.3866 20.2849 26.4547C20.4703 25.5229 20.9278 24.6669 21.5996 23.9951C22.2714 23.3233 23.1274 22.8658 24.0592 22.6804C24.991 22.4951 25.9569 22.5902 26.8347 22.9538C27.7124 23.3174 28.4627 23.9331 28.9905 24.7231C29.5184 25.513 29.8001 26.4418 29.8001 27.3919C29.8001 28.6659 29.294 29.8878 28.3931 30.7887C27.4922 31.6895 26.2704 32.1956 24.9964 32.1956ZM24.9964 24.9956C24.5224 24.9956 24.0591 25.1362 23.6651 25.3995C23.271 25.6628 22.9639 26.037 22.7825 26.4749C22.6012 26.9127 22.5537 27.3945 22.6462 27.8594C22.7386 28.3242 22.9668 28.7512 23.302 29.0863C23.6371 29.4214 24.0641 29.6496 24.5289 29.7421C24.9937 29.8346 25.4755 29.7871 25.9134 29.6057C26.3512 29.4244 26.7255 29.1172 26.9888 28.7232C27.2521 28.3291 27.3926 27.8658 27.3926 27.3919C27.3897 26.7573 27.1362 26.1495 26.6875 25.7008C26.2388 25.252 25.631 24.9986 24.9964 24.9956Z" fill="#73C7EC" stroke="#081D3C"/>
<path d="M11.7983 16.6033H26.1983V18.9995H11.7983V16.6033Z" fill="#73C7EC" stroke="#081D3C"/>
</svg>
