<svg width="46" height="47" viewBox="0 0 46 47" fill="none" xmlns="http://www.w3.org/2000/svg">
<mask id="path-1-inside-1_404_920" fill="white">
<path d="M43.0323 31.5087C43.8194 31.5087 44.5742 31.1978 45.1308 30.6445C45.6873 30.0912 46 29.3407 46 28.5581V24.8699C45.9988 23.8921 45.6076 22.9547 44.9122 22.2633C44.2167 21.5719 43.2738 21.1829 42.2903 21.1817H40.0645V4.21603C40.0633 3.23822 39.6721 2.30079 38.9767 1.60937C38.2812 0.917956 37.3383 0.529003 36.3548 0.527832H3.70968C2.72617 0.529003 1.78328 0.917956 1.08784 1.60937C0.392396 2.30079 0.00117809 3.23822 0 4.21603V27.8205C0.00117809 28.7983 0.392396 29.7357 1.08784 30.4271C1.78328 31.1186 2.72617 31.5075 3.70968 31.5087H14.8387V35.9345H14.0968C13.3097 35.9345 12.5548 36.2454 11.9983 36.7987C11.4417 37.3521 11.129 38.1025 11.129 38.8851V41.098C11.129 41.2936 11.2072 41.4813 11.3463 41.6196C11.4855 41.7579 11.6742 41.8356 11.871 41.8356H28.1935C28.3903 41.8356 28.579 41.7579 28.7182 41.6196C28.8573 41.4813 28.9355 41.2936 28.9355 41.098V38.8851C28.9355 38.1025 28.6228 37.3521 28.0663 36.7987C27.5097 36.2454 26.7548 35.9345 25.9677 35.9345H25.2258V31.5087H36.3548C37.3383 31.5075 38.2812 31.1186 38.9767 30.4271C39.6721 29.7357 40.0633 28.7983 40.0645 27.8205V22.657H42.2903C42.8806 22.657 43.4468 22.8902 43.8642 23.3052C44.2816 23.7202 44.5161 24.283 44.5161 24.8699V28.5581C44.5161 28.9494 44.3598 29.3246 44.0815 29.6013C43.8032 29.878 43.4258 30.0334 43.0323 30.0334C42.2452 30.0334 41.4903 30.3443 40.9338 30.8976C40.3772 31.4509 40.0645 32.2014 40.0645 32.984V33.043C38.8295 33.2202 37.6999 33.8336 36.8825 34.7709C36.065 35.7082 35.6144 36.9068 35.6129 38.1474V41.098C35.6129 42.4674 36.1601 43.7808 37.1341 44.7491C38.108 45.7175 39.429 46.2615 40.8065 46.2615C42.1839 46.2615 43.5049 45.7175 44.4788 44.7491C45.4528 43.7808 46 42.4674 46 41.098V38.1474C45.9985 36.9068 45.5479 35.7082 44.7304 34.7709C43.913 33.8336 42.7834 33.2202 41.5484 33.043V32.984C41.5484 32.5927 41.7047 32.2175 41.983 31.9408C42.2613 31.6641 42.6387 31.5087 43.0323 31.5087ZM27.4516 38.8851V40.3604H12.6129V38.8851C12.6129 38.4938 12.7692 38.1186 13.0475 37.8419C13.3258 37.5652 13.7032 37.4098 14.0968 37.4098H25.9677C26.3613 37.4098 26.7387 37.5652 27.017 37.8419C27.2953 38.1186 27.4516 38.4938 27.4516 38.8851ZM23.7419 35.9345H16.3226V31.5087H23.7419V35.9345ZM38.5806 27.8205C38.5806 28.4074 38.3461 28.9703 37.9287 29.3853C37.5113 29.8003 36.9452 30.0334 36.3548 30.0334H3.70968C3.11936 30.0334 2.55321 29.8003 2.13579 29.3853C1.71837 28.9703 1.48387 28.4074 1.48387 27.8205V4.21603C1.48387 3.62913 1.71837 3.06626 2.13579 2.65126C2.55321 2.23626 3.11936 2.00311 3.70968 2.00311H36.3548C36.9452 2.00311 37.5113 2.23626 37.9287 2.65126C38.3461 3.06626 38.5806 3.62913 38.5806 4.21603V21.1817H37.0968V4.21603C37.0968 4.02039 37.0186 3.83277 36.8795 3.69444C36.7403 3.5561 36.5516 3.47839 36.3548 3.47839H3.70968C3.5129 3.47839 3.32419 3.5561 3.18505 3.69444C3.04591 3.83277 2.96774 4.02039 2.96774 4.21603V24.8699C2.96774 25.0656 3.04591 25.2532 3.18505 25.3915C3.32419 25.5299 3.5129 25.6076 3.70968 25.6076H36.3548C36.5516 25.6076 36.7403 25.5299 36.8795 25.3915C37.0186 25.2532 37.0968 25.0656 37.0968 24.8699V22.657H38.5806V27.8205ZM25.9677 7.90423H19.2903C18.8675 7.90558 18.4499 7.99731 18.0659 8.1732C17.6818 8.34909 17.3403 8.60502 17.0645 8.92364C16.7887 8.60502 16.4472 8.34909 16.0632 8.1732C15.6791 7.99731 15.2615 7.90558 14.8387 7.90423H8.16129C7.96452 7.90423 7.7758 7.98194 7.63666 8.12028C7.49752 8.25861 7.41935 8.44623 7.41935 8.64186V20.4441C7.41935 20.6397 7.49752 20.8274 7.63666 20.9657C7.7758 21.104 7.96452 21.1817 8.16129 21.1817H14.8387C15.2615 21.1804 15.6791 21.0886 16.0632 20.9128C16.4472 20.7369 16.7887 20.4809 17.0645 20.1623C17.3403 20.4809 17.6818 20.7369 18.0659 20.9128C18.4499 21.0886 18.8675 21.1804 19.2903 21.1817H25.9677C26.1645 21.1817 26.3532 21.104 26.4924 20.9657C26.6315 20.8274 26.7097 20.6397 26.7097 20.4441V18.2312H27.4516C27.8452 18.2312 28.2226 18.3866 28.5009 18.6633C28.7792 18.9399 28.9355 19.3152 28.9355 19.7065C28.9355 20.489 29.2482 21.2395 29.8047 21.7928C30.3613 22.3462 31.1161 22.657 31.9032 22.657H35.6129V24.1323H4.45161V4.95367H35.6129V21.1817H31.9032C31.5097 21.1817 31.1322 21.0263 30.854 20.7496C30.5757 20.473 30.4194 20.0977 30.4194 19.7065C30.4194 18.9239 30.1067 18.1734 29.5501 17.6201C28.9936 17.0668 28.2387 16.7559 27.4516 16.7559H26.7097V8.64186C26.7097 8.44623 26.6315 8.25861 26.4924 8.12028C26.3532 7.98194 26.1645 7.90423 25.9677 7.90423ZM17.8065 10.8548C17.8065 10.4635 17.9628 10.0883 18.2411 9.8116C18.5193 9.53493 18.8968 9.3795 19.2903 9.3795H25.2258V19.7065H19.2903C18.8968 19.7065 18.5193 19.551 18.2411 19.2744C17.9628 18.9977 17.8065 18.6224 17.8065 18.2312V10.8548ZM16.3226 18.2312C16.3226 18.6224 16.1662 18.9977 15.888 19.2744C15.6097 19.551 15.2323 19.7065 14.8387 19.7065H8.90323V9.3795H14.8387C15.2323 9.3795 15.6097 9.53493 15.888 9.8116C16.1662 10.0883 16.3226 10.4635 16.3226 10.8548V18.2312ZM40.0645 34.533V37.4098H37.171C37.3178 36.7016 37.6701 36.0518 38.1843 35.5405C38.6986 35.0293 39.3522 34.679 40.0645 34.533ZM40.8065 44.7862C39.8229 44.785 38.8801 44.3961 38.1846 43.7047C37.4892 43.0132 37.098 42.0758 37.0968 41.098V38.8851H44.5161V41.098C44.5149 42.0758 44.1237 43.0132 43.4283 43.7047C42.7328 44.3961 41.79 44.785 40.8065 44.7862ZM44.4419 37.4098H41.5484V34.533C42.2607 34.679 42.9143 35.0293 43.4286 35.5405C43.9428 36.0518 44.2951 36.7016 44.4419 37.4098Z"/>
</mask>
<path d="M43.0323 31.5087C43.8194 31.5087 44.5742 31.1978 45.1308 30.6445C45.6873 30.0912 46 29.3407 46 28.5581V24.8699C45.9988 23.8921 45.6076 22.9547 44.9122 22.2633C44.2167 21.5719 43.2738 21.1829 42.2903 21.1817H40.0645V4.21603C40.0633 3.23822 39.6721 2.30079 38.9767 1.60937C38.2812 0.917956 37.3383 0.529003 36.3548 0.527832H3.70968C2.72617 0.529003 1.78328 0.917956 1.08784 1.60937C0.392396 2.30079 0.00117809 3.23822 0 4.21603V27.8205C0.00117809 28.7983 0.392396 29.7357 1.08784 30.4271C1.78328 31.1186 2.72617 31.5075 3.70968 31.5087H14.8387V35.9345H14.0968C13.3097 35.9345 12.5548 36.2454 11.9983 36.7987C11.4417 37.3521 11.129 38.1025 11.129 38.8851V41.098C11.129 41.2936 11.2072 41.4813 11.3463 41.6196C11.4855 41.7579 11.6742 41.8356 11.871 41.8356H28.1935C28.3903 41.8356 28.579 41.7579 28.7182 41.6196C28.8573 41.4813 28.9355 41.2936 28.9355 41.098V38.8851C28.9355 38.1025 28.6228 37.3521 28.0663 36.7987C27.5097 36.2454 26.7548 35.9345 25.9677 35.9345H25.2258V31.5087H36.3548C37.3383 31.5075 38.2812 31.1186 38.9767 30.4271C39.6721 29.7357 40.0633 28.7983 40.0645 27.8205V22.657H42.2903C42.8806 22.657 43.4468 22.8902 43.8642 23.3052C44.2816 23.7202 44.5161 24.283 44.5161 24.8699V28.5581C44.5161 28.9494 44.3598 29.3246 44.0815 29.6013C43.8032 29.878 43.4258 30.0334 43.0323 30.0334C42.2452 30.0334 41.4903 30.3443 40.9338 30.8976C40.3772 31.4509 40.0645 32.2014 40.0645 32.984V33.043C38.8295 33.2202 37.6999 33.8336 36.8825 34.7709C36.065 35.7082 35.6144 36.9068 35.6129 38.1474V41.098C35.6129 42.4674 36.1601 43.7808 37.1341 44.7491C38.108 45.7175 39.429 46.2615 40.8065 46.2615C42.1839 46.2615 43.5049 45.7175 44.4788 44.7491C45.4528 43.7808 46 42.4674 46 41.098V38.1474C45.9985 36.9068 45.5479 35.7082 44.7304 34.7709C43.913 33.8336 42.7834 33.2202 41.5484 33.043V32.984C41.5484 32.5927 41.7047 32.2175 41.983 31.9408C42.2613 31.6641 42.6387 31.5087 43.0323 31.5087ZM27.4516 38.8851V40.3604H12.6129V38.8851C12.6129 38.4938 12.7692 38.1186 13.0475 37.8419C13.3258 37.5652 13.7032 37.4098 14.0968 37.4098H25.9677C26.3613 37.4098 26.7387 37.5652 27.017 37.8419C27.2953 38.1186 27.4516 38.4938 27.4516 38.8851ZM23.7419 35.9345H16.3226V31.5087H23.7419V35.9345ZM38.5806 27.8205C38.5806 28.4074 38.3461 28.9703 37.9287 29.3853C37.5113 29.8003 36.9452 30.0334 36.3548 30.0334H3.70968C3.11936 30.0334 2.55321 29.8003 2.13579 29.3853C1.71837 28.9703 1.48387 28.4074 1.48387 27.8205V4.21603C1.48387 3.62913 1.71837 3.06626 2.13579 2.65126C2.55321 2.23626 3.11936 2.00311 3.70968 2.00311H36.3548C36.9452 2.00311 37.5113 2.23626 37.9287 2.65126C38.3461 3.06626 38.5806 3.62913 38.5806 4.21603V21.1817H37.0968V4.21603C37.0968 4.02039 37.0186 3.83277 36.8795 3.69444C36.7403 3.5561 36.5516 3.47839 36.3548 3.47839H3.70968C3.5129 3.47839 3.32419 3.5561 3.18505 3.69444C3.04591 3.83277 2.96774 4.02039 2.96774 4.21603V24.8699C2.96774 25.0656 3.04591 25.2532 3.18505 25.3915C3.32419 25.5299 3.5129 25.6076 3.70968 25.6076H36.3548C36.5516 25.6076 36.7403 25.5299 36.8795 25.3915C37.0186 25.2532 37.0968 25.0656 37.0968 24.8699V22.657H38.5806V27.8205ZM25.9677 7.90423H19.2903C18.8675 7.90558 18.4499 7.99731 18.0659 8.1732C17.6818 8.34909 17.3403 8.60502 17.0645 8.92364C16.7887 8.60502 16.4472 8.34909 16.0632 8.1732C15.6791 7.99731 15.2615 7.90558 14.8387 7.90423H8.16129C7.96452 7.90423 7.7758 7.98194 7.63666 8.12028C7.49752 8.25861 7.41935 8.44623 7.41935 8.64186V20.4441C7.41935 20.6397 7.49752 20.8274 7.63666 20.9657C7.7758 21.104 7.96452 21.1817 8.16129 21.1817H14.8387C15.2615 21.1804 15.6791 21.0886 16.0632 20.9128C16.4472 20.7369 16.7887 20.4809 17.0645 20.1623C17.3403 20.4809 17.6818 20.7369 18.0659 20.9128C18.4499 21.0886 18.8675 21.1804 19.2903 21.1817H25.9677C26.1645 21.1817 26.3532 21.104 26.4924 20.9657C26.6315 20.8274 26.7097 20.6397 26.7097 20.4441V18.2312H27.4516C27.8452 18.2312 28.2226 18.3866 28.5009 18.6633C28.7792 18.9399 28.9355 19.3152 28.9355 19.7065C28.9355 20.489 29.2482 21.2395 29.8047 21.7928C30.3613 22.3462 31.1161 22.657 31.9032 22.657H35.6129V24.1323H4.45161V4.95367H35.6129V21.1817H31.9032C31.5097 21.1817 31.1322 21.0263 30.854 20.7496C30.5757 20.473 30.4194 20.0977 30.4194 19.7065C30.4194 18.9239 30.1067 18.1734 29.5501 17.6201C28.9936 17.0668 28.2387 16.7559 27.4516 16.7559H26.7097V8.64186C26.7097 8.44623 26.6315 8.25861 26.4924 8.12028C26.3532 7.98194 26.1645 7.90423 25.9677 7.90423ZM17.8065 10.8548C17.8065 10.4635 17.9628 10.0883 18.2411 9.8116C18.5193 9.53493 18.8968 9.3795 19.2903 9.3795H25.2258V19.7065H19.2903C18.8968 19.7065 18.5193 19.551 18.2411 19.2744C17.9628 18.9977 17.8065 18.6224 17.8065 18.2312V10.8548ZM16.3226 18.2312C16.3226 18.6224 16.1662 18.9977 15.888 19.2744C15.6097 19.551 15.2323 19.7065 14.8387 19.7065H8.90323V9.3795H14.8387C15.2323 9.3795 15.6097 9.53493 15.888 9.8116C16.1662 10.0883 16.3226 10.4635 16.3226 10.8548V18.2312ZM40.0645 34.533V37.4098H37.171C37.3178 36.7016 37.6701 36.0518 38.1843 35.5405C38.6986 35.0293 39.3522 34.679 40.0645 34.533ZM40.8065 44.7862C39.8229 44.785 38.8801 44.3961 38.1846 43.7047C37.4892 43.0132 37.098 42.0758 37.0968 41.098V38.8851H44.5161V41.098C44.5149 42.0758 44.1237 43.0132 43.4283 43.7047C42.7328 44.3961 41.79 44.785 40.8065 44.7862ZM44.4419 37.4098H41.5484V34.533C42.2607 34.679 42.9143 35.0293 43.4286 35.5405C43.9428 36.0518 44.2951 36.7016 44.4419 37.4098Z" fill="#73C7EC" stroke="#081D3C" stroke-width="0.6" mask="url(#path-1-inside-1_404_920)"/>
<path d="M10.3871 10.855H14.8387V12.3307H10.3871V10.855Z" fill="#73C7EC"/>
<path d="M10.3871 13.8052H14.8387V15.2809H10.3871V13.8052Z" fill="#73C7EC"/>
<path d="M10.3871 16.7561H14.8387V18.2319H10.3871V16.7561Z" fill="#73C7EC"/>
<path d="M19.2903 10.855H23.7419V12.3307H19.2903V10.855Z" fill="#73C7EC"/>
<path d="M19.2903 13.8052H23.7419V15.2809H19.2903V13.8052Z" fill="#73C7EC"/>
<path d="M19.2903 16.7561H23.7419V18.2319H19.2903V16.7561Z" fill="#73C7EC"/>
<path d="M35.6129 27.083H37.0967V28.5588H35.6129V27.083Z" fill="#73C7EC"/>
<path d="M32.6452 27.083H34.1291V28.5588H32.6452V27.083Z" fill="#73C7EC"/>
<path d="M29.6774 27.083H31.1613V28.5588H29.6774V27.083Z" fill="#73C7EC"/>
</svg>
