<svg width="42" height="46" viewBox="0 0 42 46" fill="none" xmlns="http://www.w3.org/2000/svg">
<path d="M28.8398 4.32124L28.8713 4.33692H28.9065H38.32C39.9528 4.33692 41.2799 5.65757 41.28 7.2788V33.6225C41.28 35.2438 39.9529 36.5645 38.3201 36.5645H25.9342H25.7842V36.7145V43.6086V43.7586H25.9342H29.2762C29.7125 43.7586 30.0648 44.1101 30.0648 44.5417C30.0648 44.9733 29.7125 45.3249 29.2762 45.3249H12.1538C11.7174 45.3249 11.3652 44.9734 11.3652 44.5417C11.3652 44.1101 11.7174 43.7586 12.1538 43.7586H15.4958H15.6458V43.6086V36.7145V36.5645H15.4958H3.10986C1.47708 36.5645 0.15 35.2438 0.15 33.6225V7.2788C0.15 5.65757 1.47707 4.33692 3.10986 4.33692H12.5234H12.5586L12.5901 4.32124L20.1246 0.575809C20.494 0.392176 20.936 0.392183 21.3053 0.575803L21.3053 0.575809L28.8398 4.32124ZM1.87709 32.1843H1.72709V32.3343V33.6225C1.72709 34.382 2.34804 34.9983 3.10986 34.9983H38.32C39.0818 34.9983 39.7028 34.382 39.7028 33.6225V32.3343V32.1843H39.5528H1.87709ZM24.057 43.7586H24.207V43.6086V36.7145V36.5645H24.057H17.3728H17.2228V36.7145V43.6086V43.7586H17.3728H24.057ZM8.83596 6.18747L8.76918 5.90315H3.10986C2.34805 5.90315 1.72709 6.51938 1.72709 7.2788V30.468V30.618H1.87709H39.5529H39.7029V30.468V7.2788C39.7029 6.51938 39.0818 5.90315 38.3201 5.90315H32.6608L32.594 6.18747L33.394 6.58516L33.4607 6.45085L33.394 6.58517C33.8444 6.80902 34.123 7.25788 34.123 7.75758C34.1231 8.2572 33.8445 8.70615 33.394 8.9301L33.0078 9.12213L32.9246 9.16351V9.25645V16.1976C32.9246 16.6293 32.5723 16.9807 32.1361 16.9807C31.6998 16.9807 31.3475 16.6293 31.3475 16.1976V10.1896V9.94749L31.1308 10.0552L30.2162 10.5099L30.1329 10.5512V10.6442V16.761C30.1329 17.7512 29.4268 18.6173 28.4541 18.8188C25.8862 19.3509 23.3005 19.617 20.715 19.617C18.1296 19.617 15.5438 19.351 12.976 18.8188C12.0032 18.6172 11.2971 17.7512 11.2971 16.761V10.6442V10.5512L11.2138 10.5099L8.03603 8.93018C7.58554 8.70624 7.30686 8.25729 7.30686 7.75758C7.30686 7.25789 7.58562 6.80903 8.03602 6.58517L8.03604 6.58516L8.83596 6.18747ZM31.9591 7.89199L32.2293 7.75768L31.9591 7.62336L20.7817 2.06693L20.715 2.03374L20.6482 2.06693L9.47089 7.62336L9.20069 7.75768L9.47089 7.89199L20.6482 13.4483L20.715 13.4815L20.7817 13.4483L31.9591 7.89199ZM13.0908 11.443L13.0593 11.4273H13.0241H13.024H12.874V11.5773V16.761C12.874 17.0132 13.0507 17.2344 13.298 17.2856C18.2192 18.3055 23.2103 18.3055 28.1316 17.2856C28.3789 17.2344 28.5556 17.0132 28.5556 16.761V11.5773V11.3352L28.3389 11.443L21.3053 14.9394C21.1208 15.0311 20.918 15.0772 20.7149 15.0772C20.5117 15.0772 20.3089 15.0311 20.1245 14.9394L13.0908 11.443Z" fill="#73C7EC" stroke="#081D3C" stroke-width="0.3"/>
<path d="M23.5825 23.6579H14.197C13.7607 23.6579 13.4085 23.3063 13.4085 22.8744C13.4085 22.4424 13.7607 22.0909 14.197 22.0909H23.5825C24.0187 22.0909 24.371 22.4425 24.371 22.8744C24.371 23.3063 24.0187 23.6579 23.5825 23.6579Z" fill="#73C7EC" stroke="#081D3C" stroke-width="0.3"/>
<path d="M9.97247 23.6579H8.0954C7.65912 23.6579 7.30686 23.3063 7.30686 22.8744C7.30686 22.4424 7.65912 22.0909 8.0954 22.0909H9.97247C10.4088 22.0909 10.761 22.4424 10.761 22.8744C10.761 23.3063 10.4088 23.6579 9.97247 23.6579Z" fill="#73C7EC" stroke="#081D3C" stroke-width="0.3"/>
<path d="M33.3345 28.1488H14.197C13.7608 28.1488 13.4085 27.7972 13.4085 27.3652C13.4085 26.9333 13.7608 26.5816 14.197 26.5816H33.3345C33.7706 26.5816 34.123 26.9333 34.123 27.3652C34.123 27.7972 33.7706 28.1488 33.3345 28.1488Z" fill="#73C7EC" stroke="#081D3C" stroke-width="0.3"/>
<path d="M9.97247 28.1488H8.0954C7.65915 28.1488 7.30686 27.7972 7.30686 27.3652C7.30686 26.9333 7.65915 26.5816 8.0954 26.5816H9.97247C10.4087 26.5816 10.761 26.9333 10.761 27.3652C10.761 27.7972 10.4087 28.1488 9.97247 28.1488Z" fill="#73C7EC" stroke="#081D3C" stroke-width="0.3"/>
</svg>
