<svg width="51" height="43" viewBox="0 0 51 43" fill="none" xmlns="http://www.w3.org/2000/svg">
<path d="M45.897 24.792H47.6147V34.9545H45.897V24.792Z" fill="#73C7EC" stroke="black" stroke-width="0.4"/>
<path d="M5.12045 34.9538H3.38524V11.9244C3.38524 10.2959 4.72977 8.95757 6.37054 8.95757H23.1647V10.663H6.38806C5.7033 10.663 5.12045 11.2191 5.12045 11.9244V34.9538Z" fill="#73C7EC" stroke="black" stroke-width="0.4"/>
<path d="M2.13521 38.1211H1.93521V38.3211V39.3826C1.93521 40.0662 2.49626 40.644 3.20281 40.644H47.8322C48.517 40.644 49.0998 40.0879 49.0998 39.3826V38.3211V38.1211H48.8998H2.13521ZM47.8147 42.3496H3.1853C1.54454 42.3496 0.2 41.0111 0.2 39.3826V36.4156H50.8V39.3826C50.8 41.0111 49.4555 42.3496 47.8147 42.3496Z" fill="#73C7EC" stroke="black" stroke-width="0.4"/>
<path d="M24.2674 34.9536H22.5323V33.0481C22.5323 31.1964 21.0065 29.6812 19.147 29.6812H11.6913C9.83169 29.6812 8.30596 31.1965 8.30596 33.0481V34.9536H6.58818V33.0481C6.58818 30.2533 8.87817 27.9583 11.7087 27.9583H19.1469C21.9608 27.9583 24.2674 30.2367 24.2674 33.0481V34.9536Z" fill="#73C7EC" stroke="black" stroke-width="0.4"/>
<path d="M15.419 26.5148C12.886 26.5148 10.841 24.4635 10.841 21.9645C10.841 19.4646 12.887 17.3968 15.419 17.3968C17.952 17.3968 19.997 19.4481 19.997 21.9471C19.997 24.4466 17.934 26.5148 15.419 26.5148ZM15.419 19.1197C13.8395 19.1197 12.5587 20.3914 12.5587 21.9646C12.5587 23.5377 13.8394 24.8095 15.419 24.8095C16.9986 24.8095 18.2793 23.5378 18.2793 21.9646C18.2793 20.3905 16.9802 19.1197 15.419 19.1197Z" fill="#73C7EC" stroke="black" stroke-width="0.4"/>
<path d="M27.8352 29.8358V22.4865V22.2865H27.6352H23.5823V0.501025H50.8V22.2865H35.5109H35.4284L35.3699 22.3446L27.8352 29.8358ZM25.3 20.3636V20.5636H25.5H29.5529V25.2009V25.6818L29.8939 25.3427L34.7008 20.5636H48.8648H49.0648V20.3636V2.40645V2.20645H48.8648H25.5H25.3V2.40645V20.3636Z" fill="#73C7EC" stroke="black" stroke-width="0.4"/>
</svg>
