<svg width="36" height="36" viewBox="0 0 36 36" fill="none" xmlns="http://www.w3.org/2000/svg">
<path d="M6.70039 18.0004C6.70039 11.7705 11.7693 6.70161 17.9992 6.70161C24.2292 6.70161 29.2981 11.7705 29.2981 18.0004C29.2981 24.2304 24.2291 29.2993 17.9992 29.2993C11.7693 29.2993 6.70039 24.2304 6.70039 18.0004ZM8.20927 18.0004C8.20927 23.3989 12.6008 27.7904 17.9992 27.7904C23.3977 27.7904 27.7892 23.3989 27.7892 18.0004C27.7892 12.602 23.3977 8.21049 17.9992 8.21049C12.6008 8.21049 8.20927 12.602 8.20927 18.0004Z" fill="#73C7EC" stroke="#071D3B" stroke-width="0.6"/>
<path d="M22.7366 14.303L22.7366 14.3029C23.0312 14.0083 23.5088 14.0083 23.8033 14.3029L23.8034 14.303C24.098 14.5976 24.098 15.0752 23.8034 15.3699L17.4767 21.6965L17.4767 21.6966C17.3294 21.8439 17.1368 21.9175 16.9433 21.9175C16.7499 21.9175 16.5573 21.8439 16.4099 21.6965L12.1921 17.4788C11.8975 17.1841 11.8975 16.7065 12.1921 16.4118C12.4868 16.1172 12.9645 16.1172 13.259 16.4118L13.259 16.4118L16.7312 19.884L16.9434 20.0961L17.1555 19.884L22.7366 14.303Z" fill="#73C7EC" stroke="#071D3B" stroke-width="0.6"/>
<path d="M30.5156 8.47264L30.5452 8.59499L30.6532 8.65963L30.8072 8.40223L30.6532 8.65966L30.6533 8.65973L30.6538 8.66004L30.6558 8.66123L30.6637 8.66595L30.6945 8.68437L30.8113 8.75427L31.2281 9.00379L32.4932 9.76109L33.5255 10.379C33.9961 10.6607 34.3325 10.8621 34.332 10.8617L34.4901 10.6068L34.333 10.8624C35.5377 11.6029 36.0199 13.0869 35.4805 14.394L35.7495 14.505L35.4804 14.394L34.0459 17.8705L33.9986 17.9849L34.0459 18.0993L35.4804 21.5758L35.7441 21.467L35.4805 21.5758C36.02 22.883 35.5377 24.3671 34.333 25.1076L34.3325 25.1079C34.3307 25.109 34.3285 25.1103 34.3262 25.1118C34.3204 25.1154 34.3134 25.1198 34.3077 25.1237L34.3062 25.1248L34.2986 25.1293L34.1325 25.2286C33.7914 25.4325 32.9044 25.9628 30.6532 27.3103L30.5452 27.3749L30.5157 27.4973L29.6898 30.9178L29.6898 30.9178C29.358 32.2924 28.0952 33.2095 26.6855 33.1006L22.5365 32.7795L22.4104 32.7697L22.3154 32.8531L22.5133 33.0786L22.3154 32.8531L22.3153 32.8532L22.315 32.8535L22.3137 32.8546L22.3084 32.8593L22.2878 32.8773L22.2098 32.9458L21.9311 33.1903L21.0852 33.9326L20.2385 34.6755L19.9837 34.8991C19.9033 34.9697 19.8564 35.0109 19.8546 35.0124C19.3158 35.4711 18.6569 35.6996 17.9985 35.6996C17.3397 35.6996 16.6806 35.4709 16.1417 35.0118L16.14 35.0104C16.1409 35.0112 15.9106 34.809 15.5893 34.5271L14.9118 33.9327L14.0659 33.1904L13.7872 32.9458L13.7092 32.8773L13.6886 32.8593L13.6833 32.8546L13.682 32.8535L13.6816 32.8532L13.6816 32.8531L13.4837 33.0786L13.6815 32.8531L13.5866 32.7698L13.4607 32.7794C9.42874 33.0884 9.28125 33.1083 9.13363 33.1094C9.11859 33.1095 9.10355 33.1094 9.0844 33.1094C7.76824 33.1095 6.62123 32.2187 6.30718 30.9178L6.30718 30.9178L5.47783 27.4834L5.4482 27.3607L5.33977 27.2961L5.18621 27.5538L5.33973 27.296L5.33961 27.296L5.3391 27.2957L5.33711 27.2945L5.32924 27.2898L5.29853 27.2715L5.18198 27.2021L4.76594 26.9542L3.50321 26.2017C3.10594 25.965 2.71003 25.7291 2.38819 25.5373C1.96338 25.2842 1.66763 25.108 1.66823 25.1083L1.66709 25.1076C0.462284 24.3672 -0.0199591 22.8831 0.519539 21.5759L0.519544 21.5759L1.95414 18.0995L2.00137 17.985L1.95414 17.8706L0.519545 14.3941L0.519539 14.3941C-0.0199601 13.0869 0.462286 11.6028 1.66703 10.8624L1.66785 10.8619C1.66737 10.8622 1.91864 10.7129 2.28483 10.4953C2.58652 10.3161 2.9662 10.0905 3.34737 9.86402L4.50307 9.17741L4.88383 8.9512L4.9905 8.88783L5.0186 8.87113L5.0258 8.86685L5.02763 8.86577L5.02809 8.8655L5.0282 8.86543L4.87501 8.60749L5.02824 8.86541L5.12689 8.8068L5.16125 8.69732L6.31101 5.03378L6.31349 5.02586L6.31553 5.01782C6.65995 3.66226 7.91247 2.76083 9.31122 2.86944L9.3113 2.86944L13.504 3.19393L13.6305 3.20372L13.7257 3.11975L13.5272 2.89482L13.7257 3.11973L13.7258 3.11966L13.7261 3.11936L13.7274 3.11821L13.7326 3.11364L13.7528 3.09581L13.8295 3.02816L14.1031 2.78664L14.9339 2.0535C15.2812 1.74697 15.6265 1.44223 15.8584 1.23764C16.0318 1.08464 16.1417 0.987651 16.1415 0.987799L16.1416 0.987682C17.2181 0.0707727 18.7787 0.0707727 19.8551 0.987689L19.8569 0.989213C19.856 0.98844 20.0789 1.18517 20.3911 1.46063C20.5903 1.63647 20.826 1.84438 21.0629 2.0535L21.8936 2.78664L22.1673 3.02815L22.244 3.09581L22.2641 3.11364L22.2693 3.11821L22.2706 3.11936L22.271 3.11965L22.271 3.11973L22.4696 2.89482L22.2711 3.11975L22.3662 3.20372L22.4927 3.19393L26.6855 2.86944L26.6855 2.86944C28.0956 2.76007 29.3578 3.67752 29.6897 5.05218L30.5156 8.47264ZM32.2077 18.3873L32.485 18.2728C32.4089 18.0885 32.4089 17.8816 32.4849 17.6972C32.4849 17.6972 32.4849 17.6971 32.485 17.6971L34.0855 13.8185C34.3396 13.2032 34.1131 12.502 33.5482 12.1512L33.5483 12.1512L33.5441 12.1487L29.4986 9.72712C29.3249 9.6231 29.2003 9.45364 29.1527 9.25683L28.2229 5.40635C28.0662 4.75707 27.4673 4.32238 26.8019 4.37378L26.8018 4.37378L22.1645 4.73271C21.9613 4.7484 21.7599 4.68114 21.607 4.5462L21.607 4.54616L18.8746 2.13459L18.8746 2.13452L18.8689 2.12974C18.3635 1.70544 17.633 1.70542 17.1276 2.12994L17.1276 2.12987L17.122 2.13473L14.3898 4.54613C14.3898 4.54614 14.3898 4.54615 14.3898 4.54616C14.2368 4.68112 14.036 4.7484 13.8323 4.7327L9.19504 4.37379C8.52721 4.32184 7.93041 4.7576 7.77384 5.40626L7.77382 5.40633C7.77299 5.40976 7.77258 5.41178 7.77214 5.4138C7.76591 5.44249 7.75476 5.47012 6.48015 9.53395C6.42454 9.71121 6.30546 9.86168 6.1457 9.95661C6.1457 9.95661 6.14569 9.95661 6.14569 9.95661L2.45517 12.1491L2.45513 12.149L2.44969 12.1524C1.88627 12.5036 1.66061 13.2039 1.91422 13.8185L1.91423 13.8185L3.51507 17.6972L3.51508 17.6972C3.59118 17.8815 3.59118 18.0884 3.51508 18.2727L3.51507 18.2728L1.91444 22.1515C1.91444 22.1515 1.91443 22.1515 1.91443 22.1515C1.66066 22.7664 1.88658 23.467 2.45065 23.8181L2.45062 23.8181L2.4556 23.8211L6.49332 26.227C6.66773 26.3309 6.7929 26.5007 6.84052 26.698L6.84052 26.698L7.77398 30.5637C7.77398 30.5637 7.77398 30.5638 7.77398 30.5638C7.93066 31.2129 8.52895 31.6477 9.195 31.5963L9.19507 31.5963L13.7871 31.2409L13.7873 31.2409C13.9892 31.2251 14.19 31.2919 14.3429 31.426L14.5408 31.2005L14.3429 31.426L17.1217 33.8645L17.1217 33.8646L17.1264 33.8685C17.6324 34.2946 18.3644 34.2946 18.8704 33.8687L18.8705 33.8688L18.8751 33.8647L21.6541 31.426L21.6541 31.426C21.8068 31.292 22.0076 31.2252 22.2099 31.2409L26.8019 31.5963L26.802 31.5963C27.4685 31.6476 28.0663 31.2128 28.223 30.5638C28.223 30.5638 28.223 30.5638 28.223 30.5638L29.1528 26.7133C29.2003 26.5164 29.325 26.347 29.4987 26.2431L29.4987 26.243L33.5441 23.8214L33.5442 23.8214L33.5483 23.8189C34.1132 23.4681 34.3396 22.7668 34.0856 22.1515L32.485 18.2728L32.2077 18.3873Z" fill="#73C7EC" stroke="#071D3B" stroke-width="0.6"/>
</svg>
