<svg width="45" height="45" viewBox="0 0 45 45" fill="none" xmlns="http://www.w3.org/2000/svg">
<path d="M10.3594 0.375C13.0395 0.375 15.2212 2.55602 15.2212 5.23681C15.2212 7.91685 13.0395 10.0979 10.3594 10.0979C7.67921 10.0979 5.49756 7.91684 5.49756 5.23681C5.49756 2.55602 7.67925 0.375 10.3594 0.375ZM10.3594 2.625C8.91886 2.625 7.74756 3.79632 7.74756 5.23681C7.74756 6.67667 8.91896 7.84789 10.3594 7.84789C11.7998 7.84789 12.9712 6.67667 12.9712 5.23681C12.9712 3.79632 11.7999 2.625 10.3594 2.625Z" fill="#73C7EC" stroke="#071D3B" stroke-width="0.75"/>
<path d="M17.5635 20.7722H18.0258L17.9304 20.3199C17.2018 16.8646 14.1294 14.2632 10.4605 14.2632H10.2583C6.58935 14.2632 3.51699 16.8645 2.78835 20.3199L2.69295 20.7722H3.15528H17.5635ZM1.5 23.0222C0.878129 23.0222 0.375 22.5186 0.375 21.8972C0.375 16.4478 4.80966 12.0132 10.2583 12.0132H10.4604C15.9091 12.0132 20.3438 16.4478 20.3438 21.8972C20.3438 22.5186 19.8406 23.0222 19.2188 23.0222H1.5Z" fill="#73C7EC" stroke="#071D3B" stroke-width="0.75"/>
<path d="M29.7788 26.8396C29.7788 24.1588 31.9605 21.9778 34.6406 21.9778C37.3208 21.9778 39.5024 24.1588 39.5024 26.8396C39.5024 29.5196 37.3208 31.7007 34.6406 31.7007C31.9605 31.7007 29.7788 29.5196 29.7788 26.8396ZM32.0288 26.8396C32.0288 28.2794 33.2002 29.4507 34.6406 29.4507C36.0811 29.4507 37.2524 28.2794 37.2524 26.8396C37.2524 25.3991 36.0811 24.2278 34.6406 24.2278C33.2001 24.2278 32.0288 25.3991 32.0288 26.8396Z" fill="#73C7EC" stroke="#071D3B" stroke-width="0.75"/>
<path d="M27.0696 41.9226L26.9742 42.375H27.4365H41.8447H42.3071L42.2117 41.9226C41.483 38.4673 38.4107 35.866 34.7417 35.866H34.5396C30.8706 35.866 27.7983 38.4673 27.0696 41.9226ZM34.5396 33.616H34.7417C40.1903 33.616 44.625 38.0506 44.625 43.5C44.625 44.1214 44.1219 44.625 43.5 44.625H25.7812C25.1594 44.625 24.6562 44.1214 24.6562 43.5C24.6562 38.0506 29.0909 33.616 34.5396 33.616Z" fill="#73C7EC" stroke="#071D3B" stroke-width="0.75"/>
<path d="M22.5 4.11182H31.5C35.4282 4.11182 38.625 7.30868 38.625 11.2368V17.5181C38.625 18.1395 38.1219 18.6431 37.5 18.6431C36.8781 18.6431 36.375 18.1395 36.375 17.5181V11.2368C36.375 8.54826 34.1886 6.36182 31.5 6.36182H22.5C21.8781 6.36182 21.375 5.8582 21.375 5.23682C21.375 4.61543 21.8781 4.11182 22.5 4.11182Z" fill="#73C7EC" stroke="#071D3B" stroke-width="0.75"/>
<path d="M8.625 33.7632C8.625 36.4517 10.8114 38.6382 13.5 38.6382H20.3701C20.992 38.6382 21.4951 39.1418 21.4951 39.7632C21.4951 40.3846 20.992 40.8882 20.3701 40.8882H13.5C9.57185 40.8882 6.375 37.6913 6.375 33.7632V27.4819C6.375 26.8605 6.87813 26.3569 7.5 26.3569C8.12187 26.3569 8.625 26.8605 8.625 27.4819V33.7632Z" fill="#73C7EC" stroke="#071D3B" stroke-width="0.75"/>
</svg>
