<svg width="45" height="45" viewBox="0 0 45 45" fill="none" xmlns="http://www.w3.org/2000/svg">
<path d="M38.4727 7.03125V7.40625H38.8477H40.166C42.6244 7.40625 44.625 9.40688 44.625 11.8652V18.8965C44.625 21.3548 42.6244 23.3555 40.166 23.3555H36.0352H35.6602V23.7305V37.5293C35.6602 39.503 34.0538 41.1094 32.0801 41.1094H6.991H6.87746L6.78299 41.1724L1.8416 44.4665L1.84148 44.4666C1.6838 44.5718 1.50142 44.625 1.31827 44.625C1.16549 44.625 1.01273 44.5881 0.87333 44.5134L0.873211 44.5134C0.566508 44.3492 0.375 44.0296 0.375 43.6816V18.1934C0.375 16.2196 1.98135 14.6133 3.95508 14.6133H19.5117H19.8867V14.2383V8.34961C19.8867 7.82863 20.3091 7.40625 20.8301 7.40625H26.1035C26.6245 7.40625 27.0469 7.82863 27.0469 8.34961V8.35963V8.85679L27.5249 8.7202L28.8094 8.35317C30.2841 7.93188 31.3125 6.56841 31.3125 5.03481V3.95508C31.3125 1.98135 32.9189 0.375 34.8926 0.375C36.8663 0.375 38.4727 1.98135 38.4727 3.95508V7.03125ZM22.1484 9.29297H21.7734V9.66797V21.0938V21.4688H22.1484H24.7852H25.1602V21.0938V9.66797V9.29297H24.7852H22.1484ZM6.06856 39.3812L6.06859 39.3811C6.22357 39.2778 6.40563 39.2227 6.5918 39.2227H32.0801C33.0141 39.2227 33.7734 38.4633 33.7734 37.5293V23.7305V23.3555H33.3984H31.4043C30.0414 23.3555 28.7302 22.9575 27.6144 22.246L27.1078 21.9229L27.0401 22.5199C26.9868 22.9901 26.5876 23.3555 26.1035 23.3555H20.8301C20.3091 23.3555 19.8867 22.9331 19.8867 22.4121V16.875V16.5H19.5117H3.95508C3.02103 16.5 2.26172 17.2593 2.26172 18.1934V41.2183V41.919L2.84473 41.5303L6.06856 39.3812ZM27.0469 18.9628V19.0764L27.11 19.1709C28.0615 20.5969 29.6753 21.4688 31.4043 21.4688H40.166C41.5847 21.4688 42.7383 20.3152 42.7383 18.8965V11.8652C42.7383 10.4466 41.5847 9.29297 40.166 9.29297H37.5293C37.0083 9.29297 36.5859 8.87059 36.5859 8.34961V3.95508C36.5859 3.02103 35.8266 2.26172 34.8926 2.26172C33.9585 2.26172 33.1992 3.02103 33.1992 3.95508V5.03481C33.1992 7.40461 31.6064 9.51634 29.3277 10.1674L27.3189 10.7413L27.0469 10.819V11.1019V18.9628Z" fill="#73C7EC" stroke="#071D3B" stroke-width="0.75"/>
<path d="M15.3809 24.4102H6.5918C6.07082 24.4102 5.64844 23.9878 5.64844 23.4668C5.64844 22.9458 6.07082 22.5234 6.5918 22.5234H15.3809C15.9018 22.5234 16.3242 22.9458 16.3242 23.4668C16.3242 23.9878 15.9018 24.4102 15.3809 24.4102Z" fill="#73C7EC" stroke="#071D3B" stroke-width="0.75"/>
<path d="M6.5918 27.7969H29.4434C29.9643 27.7969 30.3867 28.2193 30.3867 28.7402C30.3867 29.2612 29.9643 29.6836 29.4434 29.6836H6.5918C6.07082 29.6836 5.64844 29.2612 5.64844 28.7402C5.64844 28.2193 6.07082 27.7969 6.5918 27.7969Z" fill="#73C7EC" stroke="#071D3B" stroke-width="0.75"/>
<path d="M6.5918 33.0703H29.4434C29.9643 33.0703 30.3867 33.4927 30.3867 34.0137C30.3867 34.5347 29.9643 34.957 29.4434 34.957H6.5918C6.07082 34.957 5.64844 34.5347 5.64844 34.0137C5.64844 33.4927 6.07082 33.0703 6.5918 33.0703Z" fill="#73C7EC" stroke="#071D3B" stroke-width="0.75"/>
</svg>
