<svg width="45" height="45" viewBox="0 0 45 45" fill="none" xmlns="http://www.w3.org/2000/svg">
<path d="M12.2178 42.6437L11.9527 42.3786L11.6875 42.6437L9.98305 44.3483C9.98305 44.3483 9.98305 44.3483 9.98305 44.3483C9.61464 44.7167 9.0173 44.7166 8.64896 44.3483C8.28054 43.9799 8.28054 43.3825 8.64896 43.0141L10.3534 41.3096L10.6186 41.0445L10.3534 40.7793L8.64887 39.0748C8.28045 38.7063 8.28045 38.1091 8.64887 37.7407C9.0173 37.3722 9.61463 37.3723 9.98294 37.7406L9.98296 37.7407L11.6875 39.4452L11.9527 39.7104L12.2178 39.4452L13.9223 37.7408C14.2907 37.3723 14.8881 37.3724 15.2564 37.7407L15.2564 37.7408C15.6248 38.1092 15.6248 38.7064 15.2564 39.0748L13.5519 40.7793L13.2868 41.0445L13.5519 41.3096L15.2565 43.0142C15.6249 43.3826 15.6249 43.9799 15.2565 44.3483C14.8881 44.7167 14.2907 44.7166 13.9224 44.3483L12.2178 42.6437Z" fill="#73C7EC" stroke="#071D3B" stroke-width="0.75"/>
<path d="M36.3345 37.7407L36.3345 37.7406C36.7028 37.3723 37.3001 37.3723 37.6685 37.7407L37.6685 37.7407C38.0369 38.1092 38.0369 38.7064 37.6685 39.0748L32.3951 44.3483L32.395 44.3483C32.2109 44.5325 31.9701 44.6245 31.7281 44.6245C31.486 44.6245 31.2453 44.5325 31.061 44.3482L31.061 44.3482L28.4243 41.7115C28.0558 41.343 28.0558 40.7458 28.4243 40.3774C28.7927 40.0089 29.39 40.009 29.7583 40.3774L29.7584 40.3774L31.4629 42.0819L31.7281 42.3471L31.9932 42.0819L36.3345 37.7407Z" fill="#73C7EC" stroke="#071D3B" stroke-width="0.75"/>
<path d="M23.4434 5.36133V5.73633H23.8184H43.6816C44.2026 5.73633 44.625 6.15871 44.625 6.67969V33.0469C44.625 33.5679 44.2026 33.9902 43.6816 33.9902H23.8184H23.4434V34.3652V38.4082C23.4434 38.9292 23.021 39.3516 22.5 39.3516C21.979 39.3516 21.5566 38.9292 21.5566 38.4082V34.3652V33.9902H21.1816H1.31836C0.79738 33.9902 0.375 33.5679 0.375 33.0469V6.67969C0.375 6.15871 0.79738 5.73633 1.31836 5.73633H21.1816H21.5566V5.36133V1.31836C21.5566 0.79738 21.979 0.375 22.5 0.375C23.021 0.375 23.4434 0.79738 23.4434 1.31836V5.36133ZM2.26172 31.7285V32.1035H2.63672H21.1816H21.5566V31.7285V7.99805V7.62305H21.1816H2.63672H2.26172V7.99805V31.7285ZM42.3633 32.1035H42.7383V31.7285V7.99805V7.62305H42.3633H23.8184H23.4434V7.99805V31.7285V32.1035H23.8184H42.3633Z" fill="#73C7EC" stroke="#071D3B" stroke-width="0.75"/>
<path d="M29.0918 12.8965H28.7168V13.2715V21.1816V21.5566H29.0918H37.0898H37.4648V21.1816V13.2715V12.8965H37.0898H29.0918ZM38.4082 23.4434H27.7734C27.2525 23.4434 26.8301 23.021 26.8301 22.5V11.9531C26.8301 11.4321 27.2525 11.0098 27.7734 11.0098H38.4082C38.9292 11.0098 39.3516 11.4321 39.3516 11.9531V22.5C39.3516 23.021 38.9292 23.4434 38.4082 23.4434Z" fill="#73C7EC" stroke="#071D3B" stroke-width="0.75"/>
<path d="M18.1699 17.2266C18.1699 20.6542 15.3807 23.4434 11.9531 23.4434C8.52552 23.4434 5.73633 20.6542 5.73633 17.2266C5.73633 13.799 8.52552 11.0098 11.9531 11.0098C15.3807 11.0098 18.1699 13.799 18.1699 17.2266ZM16.2832 17.2266C16.2832 14.8386 14.3411 12.8965 11.9531 12.8965C9.56519 12.8965 7.62305 14.8386 7.62305 17.2266C7.62305 19.6145 9.56519 21.5566 11.9531 21.5566C14.3411 21.5566 16.2832 19.6145 16.2832 17.2266Z" fill="#73C7EC" stroke="#071D3B" stroke-width="0.75"/>
<path d="M6.67969 26.8301H17.2266C17.7475 26.8301 18.1699 27.2525 18.1699 27.7734C18.1699 28.2944 17.7475 28.7168 17.2266 28.7168H6.67969C6.15871 28.7168 5.73633 28.2944 5.73633 27.7734C5.73633 27.2525 6.15871 26.8301 6.67969 26.8301Z" fill="#73C7EC" stroke="#071D3B" stroke-width="0.75"/>
<path d="M27.7734 26.8301H38.4082C38.9292 26.8301 39.3516 27.2525 39.3516 27.7734C39.3516 28.2944 38.9292 28.7168 38.4082 28.7168H27.7734C27.2525 28.7168 26.8301 28.2944 26.8301 27.7734C26.8301 27.2525 27.2525 26.8301 27.7734 26.8301Z" fill="#73C7EC" stroke="#071D3B" stroke-width="0.75"/>
</svg>
