<svg width="35" height="36" viewBox="0 0 35 36" fill="none" xmlns="http://www.w3.org/2000/svg">
<path d="M16.0009 22.8672C16.2189 23.0857 16.2189 23.4393 16.0009 23.6579C15.7827 23.8756 15.4291 23.8757 15.2104 23.6579C14.9927 23.4393 14.9927 23.0857 15.2104 22.8672C15.429 22.6494 15.7826 22.6495 16.0009 22.8672Z" fill="#73C7EC" stroke="#071D3B" stroke-width="0.25"/>
<path d="M20.372 14.9148C16.2947 14.9148 12.9773 11.5971 12.9773 7.51974C12.9773 3.4424 16.2947 0.125 20.372 0.125C24.4494 0.125 27.7668 3.4424 27.7668 7.51974C27.7668 11.5971 24.4494 14.9148 20.372 14.9148ZM20.372 13.7974C23.8337 13.7974 26.6497 10.9814 26.6497 7.51974C26.6497 4.05838 23.8337 1.24235 20.372 1.24235C16.9104 1.24235 14.0944 4.05838 14.0944 7.51974C14.0944 10.9814 16.9104 13.7974 20.372 13.7974Z" fill="#73C7EC" stroke="#071D3B" stroke-width="0.25"/>
<path d="M7.96286 34.7207L7.96288 34.7207C8.17941 34.939 8.53189 34.9414 8.75122 34.7253L12.0649 31.4608C12.065 31.4607 12.0651 31.4606 12.0652 31.4605C12.5931 30.9323 12.7544 30.1493 12.5217 29.4682L12.496 29.393L12.5532 29.3378L13.266 28.6503L7.96286 34.7207ZM7.96286 34.7207L0.287141 26.9865C0.0705771 26.7682 0.0710477 26.4161 0.287985 26.1985L3.53995 22.9369C3.53996 22.9369 3.53998 22.9369 3.53999 22.9369C4.00327 22.4736 4.64662 22.2892 5.25667 22.4048L5.34641 22.4218L5.38988 22.3415C6.90796 19.5361 9.73695 18.036 12.9888 18.036C14.16 18.036 15.2946 18.2624 16.3639 18.7098L16.387 18.7195H16.4121H24.0352C24.8355 18.7195 25.5771 19.0922 26.0636 19.691L26.1522 19.8001L26.2502 19.6994L30.2842 15.5532L30.2843 15.5534L30.2892 15.5477C31.2203 14.468 32.8576 14.3357 33.9503 15.2566C35.0498 16.1863 35.1886 17.8361 34.2602 18.9345L34.2598 18.935C31.5765 22.142 30.0589 23.957 29.1991 24.9852C29.0078 25.214 28.8491 25.4039 28.7173 25.5614C28.0757 26.3286 28.0747 26.3289 28.0716 26.3298C28.0711 26.3299 28.0707 26.33 28.0686 26.332L28.0685 26.3321M7.96286 34.7207L28.0685 26.3321M28.0685 26.3321C26.9366 27.4337 25.444 28.0401 23.8643 28.0401H14.7763C14.2097 28.0401 13.6732 28.257 13.2661 28.6502L28.0685 26.3321ZM16.0483 19.7899L16.0482 19.7899C15.0821 19.3673 14.0527 19.153 12.9885 19.153C10.026 19.153 7.63211 20.5098 6.35641 22.903L6.31285 22.9847L6.37833 23.0502L11.7339 28.4055L11.8208 28.4923L11.9091 28.4071L12.4901 27.8464L12.4901 27.8463C13.1063 27.2511 13.9181 26.923 14.7763 26.923H23.8643C25.1391 26.923 26.3457 26.4375 27.2644 25.5556L27.2649 25.5561L27.2737 25.5456L33.4048 18.216C33.405 18.2159 33.4051 18.2157 33.4052 18.2156C33.9378 17.5847 33.8583 16.6417 33.2298 16.1103L33.2297 16.1101C32.6015 15.5806 31.6579 15.6603 31.1262 16.2878L31.1258 16.2884C31.126 16.2882 31.1256 16.2886 31.1245 16.2897C31.1214 16.293 31.1124 16.3026 31.0925 16.3233C31.0677 16.3491 31.0293 16.3889 30.9713 16.4486C30.8556 16.5679 30.6627 16.7663 30.3485 17.0892C30.1298 17.314 29.8524 17.5992 29.5012 17.9601C28.8437 18.6358 27.9278 19.577 26.656 20.8844L26.6138 20.9278L26.6217 20.9878C26.6365 21.101 26.6446 21.2147 26.6446 21.3289C26.6446 22.7677 25.474 23.9384 24.0352 23.9384H18.4577C18.1492 23.9384 17.8991 23.6884 17.8991 23.3798C17.8991 23.0714 18.1493 22.8213 18.4577 22.8213H24.0352C24.8583 22.8213 25.5276 22.152 25.5276 21.3289C25.5276 20.496 24.8442 19.8368 24.0352 19.8368H16.2721C16.1951 19.8368 16.119 19.8209 16.0483 19.7899ZM4.33065 23.7263L4.33052 23.7264L1.55923 26.5057L1.47143 26.5938L1.55902 26.682L8.27609 33.4504L8.36382 33.5388L8.45254 33.4514L11.2781 30.6678L11.2787 30.6671C11.581 30.3648 11.5983 29.8503 11.275 29.5269L11.2749 29.5268C8.81005 27.0654 7.38907 25.6416 6.56336 24.8142C6.36026 24.6107 6.19317 24.4433 6.05542 24.3054C5.70719 23.9567 5.54523 23.7956 5.46306 23.7172C5.42269 23.6788 5.39735 23.6561 5.37652 23.6407C5.35929 23.6279 5.33747 23.6156 5.33188 23.6125C5.33127 23.6122 5.33086 23.6119 5.33066 23.6118C5.00689 23.4121 4.59719 23.4597 4.33065 23.7263Z" fill="#73C7EC" stroke="#071D3B" stroke-width="0.25"/>
<path d="M19.5932 4.33707L19.6764 4.30756V4.21925V3.41818C19.6764 3.10949 19.9266 2.85938 20.235 2.85938C20.5433 2.85938 20.7935 3.10949 20.7935 3.41818V4.21444V4.30468L20.8792 4.33309C21.1739 4.43084 21.5049 4.61094 21.8383 4.93359C22.0598 5.14816 22.0657 5.50172 21.8512 5.72348C21.6366 5.94504 21.283 5.95092 21.0613 5.73638C20.8057 5.48898 20.5205 5.3438 20.235 5.3438C19.789 5.3438 19.4264 5.70674 19.4264 6.15261C19.4264 6.59854 19.789 6.96115 20.235 6.96115C21.2969 6.96115 22.1609 7.82512 22.1609 8.88704C22.1609 9.72336 21.6243 10.4373 20.8767 10.7026L20.7935 10.7321V10.8204V11.6215C20.7935 11.9301 20.5434 12.18 20.235 12.18C19.9265 12.18 19.6764 11.9301 19.6764 11.6215V10.8236V10.7337L19.5912 10.7051C19.1607 10.5607 18.7494 10.2726 18.3965 9.85287L18.3965 9.85286C18.1979 9.61672 18.2284 9.26445 18.4646 9.06577C18.7008 8.86737 19.0531 8.89776 19.2517 9.1339C19.5438 9.48168 19.891 9.69558 20.235 9.69558C20.6809 9.69558 21.0435 9.33297 21.0435 8.88704C21.0435 8.4411 20.6809 8.0785 20.235 8.0785C19.1731 8.0785 18.3091 7.21427 18.3091 6.15261C18.3091 5.316 18.8456 4.60206 19.5932 4.33707Z" fill="#73C7EC" stroke="#071D3B" stroke-width="0.25"/>
</svg>
