<svg width="35" height="40" viewBox="0 0 35 40" fill="none" xmlns="http://www.w3.org/2000/svg">
<path d="M17.5001 0.426349C22.2425 2.97543 28.4999 5.0433 33.8333 5.0433H34.625V5.83497C34.625 15.6215 32.6066 25.9513 26.264 33.2423C23.9653 35.8847 20.7611 38.4178 17.5 39.4338C14.2438 38.419 11.0273 35.8763 8.73605 33.2423C2.39798 25.9566 0.375 15.6327 0.375 5.83497V5.0433H1.16667C6.55338 5.0433 12.8245 2.93919 17.5001 0.426349ZM17.3651 37.7232L17.5003 37.7755L17.6355 37.7233C18.6912 37.3153 21.9579 35.8305 25.1788 32.0766C28.6884 27.9862 32.809 20.3513 33.0323 6.97943L33.0383 6.61599L32.6753 6.5986C25.955 6.27673 19.5755 3.28537 17.6702 2.31525L17.5001 2.22861L17.3299 2.31525C15.4246 3.28537 9.04516 6.27673 2.32488 6.5986L1.96181 6.61599L1.96787 6.97942C2.19097 20.3513 6.31163 27.9862 9.8213 32.0766C13.0403 35.8283 16.3051 37.3135 17.3651 37.7232Z" fill="#73C7EC" stroke="#071D3B" stroke-width="0.75"/>
<path d="M17.5002 27.7043C11.9177 27.7043 7.37524 23.1618 7.37524 17.5792C7.37524 11.9512 11.9203 7.37646 17.5002 7.37646C23.0802 7.37646 27.6252 11.9511 27.6252 17.5792C27.6252 23.1618 23.0828 27.7043 17.5002 27.7043ZM17.5002 26.1209C22.2105 26.1209 26.0419 22.2895 26.0419 17.5792C26.0419 12.8295 22.2138 8.9598 17.5002 8.9598C12.7867 8.9598 8.95858 12.8295 8.95858 17.5792C8.95858 22.2895 12.79 26.1209 17.5002 26.1209Z" fill="#73C7EC" stroke="#071D3B" stroke-width="0.75"/>
<path d="M16.5944 19.6875L21.3395 14.8792L22.4664 15.9914L16.3367 22.2028L12.5384 18.4044L13.658 17.2849L16.0624 19.6893L16.3293 19.9562L16.5944 19.6875Z" fill="#73C7EC" stroke="#071D3B" stroke-width="0.75"/>
</svg>
