<svg width="24" height="24" viewBox="0 0 24 24" fill="none" xmlns="http://www.w3.org/2000/svg">
<path fill-rule="evenodd" clip-rule="evenodd" d="M11.5559 0C8.41748 0 8.02396 0.0133015 6.7914 0.0695395C5.56142 0.125639 4.72137 0.321002 3.98633 0.606687C3.22643 0.901959 2.58199 1.29709 1.93952 1.93952C1.2971 2.58199 0.901959 3.22643 0.606687 3.98633C0.321002 4.72137 0.125647 5.5614 0.0695468 6.79139C0.0133088 8.02394 0 8.41747 0 11.5559C0 14.6942 0.0133088 15.0878 0.0695468 16.3203C0.125647 17.5503 0.321002 18.3903 0.606687 19.1254C0.901959 19.8853 1.2971 20.5297 1.93952 21.1722C2.58199 21.8146 3.22643 22.2097 3.98633 22.5051C4.72137 22.7907 5.56142 22.9861 6.7914 23.0422C8.02396 23.0984 8.41748 23.1117 11.5559 23.1117C14.6942 23.1117 15.0878 23.0984 16.3203 23.0422C17.5503 22.9861 18.3903 22.7907 19.1254 22.5051C19.8853 22.2097 20.5297 21.8146 21.1722 21.1722C21.8146 20.5297 22.2097 19.8853 22.5051 19.1254C22.7907 18.3903 22.9861 17.5503 23.0422 16.3203C23.0984 15.0878 23.1117 14.6942 23.1117 11.5559C23.1117 8.41747 23.0984 8.02394 23.0422 6.79139C22.9861 5.5614 22.7907 4.72137 22.5051 3.98633C22.2097 3.22643 21.8146 2.58199 21.1722 1.93952C20.5297 1.29709 19.8853 0.901959 19.1254 0.606687C18.3903 0.321002 17.5503 0.125639 16.3203 0.0695395C15.0878 0.0133015 14.6942 0 11.5559 0ZM11.5559 2.08213C14.6414 2.08213 15.0069 2.09392 16.2254 2.14952C17.3521 2.20089 17.964 2.38915 18.3712 2.5474C18.9106 2.75703 19.2955 3.00744 19.6999 3.41184C20.1043 3.8162 20.3547 4.20115 20.5643 4.74054C20.7225 5.14774 20.9108 5.75961 20.9622 6.8863C21.0178 8.10482 21.0296 8.47031 21.0296 11.5559C21.0296 14.6414 21.0178 15.0069 20.9622 16.2254C20.9108 17.3521 20.7225 17.964 20.5643 18.3712C20.3547 18.9106 20.1043 19.2955 19.6999 19.6999C19.2955 20.1043 18.9106 20.3547 18.3712 20.5643C17.964 20.7226 17.3521 20.9108 16.2254 20.9622C15.0071 21.0178 14.6416 21.0296 11.5559 21.0296C8.47009 21.0296 8.10468 21.0178 6.8863 20.9622C5.75961 20.9108 5.14774 20.7226 4.74054 20.5643C4.20115 20.3547 3.81619 20.1043 3.41184 19.6999C3.00748 19.2955 2.75703 18.9106 2.5474 18.3712C2.38915 17.964 2.20089 17.3521 2.14952 16.2254C2.09392 15.0069 2.08213 14.6414 2.08213 11.5559C2.08213 8.47031 2.09392 8.10482 2.14952 6.8863C2.20089 5.75961 2.38915 5.14774 2.5474 4.74054C2.75703 4.20115 3.00744 3.8162 3.41184 3.41184C3.81619 3.00744 4.20115 2.75703 4.74054 2.5474C5.14774 2.38915 5.75961 2.20089 6.8863 2.14952C8.10482 2.09392 8.47032 2.08213 11.5559 2.08213ZM11.5559 5.62177C8.27854 5.62177 5.62177 8.27853 5.62177 11.5559C5.62177 14.8332 8.27854 17.4899 11.5559 17.4899C14.8332 17.4899 17.49 14.8332 17.49 11.5559C17.49 8.27853 14.8332 5.62177 11.5559 5.62177ZM11.5559 15.4078C9.42848 15.4078 7.7039 13.6832 7.7039 11.5559C7.7039 9.42847 9.42848 7.7039 11.5559 7.7039C13.6832 7.7039 15.4078 9.42847 15.4078 11.5559C15.4078 13.6832 13.6832 15.4078 11.5559 15.4078ZM19.1111 5.38732C19.1111 6.15319 18.4902 6.77401 17.7244 6.77401C16.9586 6.77401 16.3377 6.15319 16.3377 5.38732C16.3377 4.62146 16.9586 4.0006 17.7244 4.0006C18.4902 4.0006 19.1111 4.62146 19.1111 5.38732Z" fill="#F5C744"/>
</svg>
