<svg width="25" height="25" viewBox="0 0 25 25" fill="none" xmlns="http://www.w3.org/2000/svg">
<path d="M24.5317 24.5542V24.5532H24.5378V15.5473C24.5378 11.1416 23.5901 7.7478 18.4432 7.7478C15.969 7.7478 14.3086 9.10656 13.6307 10.3947H13.5592V8.15911H8.6792V24.5532H13.7606V16.4354C13.7606 14.2981 14.1655 12.2313 16.8104 12.2313C19.4166 12.2313 19.4554 14.6705 19.4554 16.5725V24.5542H24.5317Z" fill="#F5C744"/>
<path d="M0.404907 8.16064H5.49244V24.5547H0.404907L0.404907 8.16064Z" fill="#F5C744"/>
<path d="M2.9466 0C1.31994 0 0 1.3209 0 2.94874C0 4.57659 1.31994 5.92511 2.9466 5.92511C4.57326 5.92511 5.89319 4.57659 5.89319 2.94874C5.89217 1.3209 4.57223 0 2.9466 0Z" fill="#F5C744"/>
</svg>
