<svg width="200" height="48" viewBox="0 0 200 48" fill="none" xmlns="http://www.w3.org/2000/svg">
<path d="M22.8374 47.504C22.6691 47.5021 22.5049 47.4527 22.3635 47.3614C18.0698 44.7193 14.3373 41.6462 11.2719 38.2265C6.3298 32.7385 2.87093 26.0794 1.22311 18.8803C0.276956 14.8058 -0.11408 10.5995 0.0285329 6.03131C0.0392672 5.67248 0.0622685 5.31211 0.0852706 4.95788C0.108273 4.60365 0.132807 4.20648 0.142008 3.83538C0.154276 3.37534 0.410365 3.08398 0.908743 2.97817C1.83956 2.77882 2.77038 2.57027 3.69966 2.36478C5.67017 1.92314 7.70662 1.4677 9.73233 1.0966C13.7862 0.360613 17.8984 -0.00636581 22.0185 8.35413e-05H22.0829C27.4838 8.35413e-05 32.9429 0.553752 38.7701 1.68699C39.977 1.92161 41.1945 2.18997 42.3722 2.45372C43.1696 2.62854 43.9671 2.80489 44.766 2.97204C45.2782 3.07938 45.545 3.38761 45.5787 3.91512C45.764 6.49928 45.764 9.09339 45.5787 11.6776C44.7706 22.0684 40.9231 31.1082 34.1467 38.547C31.1549 41.8317 27.542 44.7806 23.4124 47.3124C23.2431 47.4302 23.0435 47.4967 22.8374 47.504ZM1.08663 3.91665C1.07589 4.29082 1.05136 4.66499 1.02835 5.02842C1.00535 5.39185 0.983885 5.72155 0.973151 6.06351C0.835139 10.552 1.21697 14.6755 2.14472 18.6702C3.75634 25.714 7.14091 32.2292 11.9773 37.5978C14.9768 40.9454 18.6326 43.9571 22.8435 46.5502L22.9048 46.515C26.9609 44.0292 30.5047 41.1371 33.4367 37.9183C40.069 30.6389 43.8321 21.7893 44.631 11.6131C44.814 9.07343 44.814 6.52384 44.631 3.98413C44.6325 3.96268 44.6325 3.94117 44.631 3.91972L44.5743 3.90439C43.7723 3.73724 42.9718 3.56089 42.1714 3.38454C40.9998 3.12692 39.7868 2.85856 38.5907 2.6178C32.8249 1.49224 27.424 0.943254 22.0844 0.943254H21.8391C17.8347 0.945202 13.8385 1.30444 9.89794 2.01668C7.89063 2.38472 5.86339 2.83862 3.90208 3.27873C2.96973 3.48728 2.03738 3.69583 1.10196 3.89212L1.08663 3.91665Z" fill="white"/>
<path d="M38.8209 18.2423V21.895H37.5757C37.0526 21.2614 36.4314 20.7157 35.7355 20.2788C35.0225 19.8356 34.1867 19.5228 33.3157 19.5473C32.4447 19.5718 31.6289 19.9046 30.9051 20.3416C30.2213 20.7716 29.6004 21.2944 29.0603 21.895L25.0626 21.8598H24.8387L24.7957 22.0867C24.443 23.9974 24.1072 25.9097 23.7744 27.828L23.1611 19.9353C22.8927 16.4895 22.5845 13.0469 22.2977 9.6012L22.0324 6.42538L21.6537 9.5874L20.7964 16.6996C20.5312 18.8373 20.2935 20.9842 20.0481 23.1264L19.2722 21.9196L19.1986 21.8107H19.0759L16.7757 21.8352C16.6313 21.439 16.4116 21.0745 16.1286 20.7618C15.7955 20.3848 15.3126 20.1748 14.8098 20.1883C14.316 20.2271 13.8603 20.4686 13.5508 20.8553C13.2763 21.1815 13.0619 21.5538 12.9175 21.9548H6.89246V18.25C6.89246 17.16 7.77606 16.2764 8.86603 16.2764H17.9289V7.20899C17.9297 7.09058 17.9415 6.97251 17.9641 6.85629C18.1335 5.91749 18.9515 5.23516 19.9055 5.23694H25.8078C26.8963 5.23863 27.7782 6.12056 27.7799 7.20899V16.2764H36.8381C37.3618 16.274 37.865 16.4797 38.2369 16.8485C38.6088 17.2172 38.8188 17.7186 38.8209 18.2423Z" fill="white"/>
<path d="M38.8194 22.1282V24.1432C38.8194 24.6682 38.6102 25.1716 38.2381 25.5419C37.866 25.9123 37.3616 26.1192 36.8366 26.1167H27.7784V35.1841C27.7769 36.1168 27.1236 36.9216 26.2112 37.1148C26.0781 37.1428 25.9424 37.1566 25.8063 37.1562H19.904C19.768 37.1566 19.6323 37.1428 19.4992 37.1148C18.7152 36.9486 18.1094 36.3252 17.9657 35.5368C17.943 35.4206 17.9312 35.3026 17.9304 35.1841V26.1167H8.86762C7.77764 26.1167 6.89404 25.2331 6.89404 24.1432V22.2509H13.1215L13.1598 22.1466C13.3059 21.7522 13.5237 21.3882 13.8023 21.0731C14.0552 20.7651 14.4231 20.5739 14.8206 20.5441C15.2126 20.5448 15.5842 20.7188 15.8357 21.0195C16.1041 21.3325 16.3041 21.6981 16.423 22.0929L16.4721 22.2463H16.6255L18.9425 22.2708L20.0022 23.9745L20.3732 24.5695L20.4637 23.8733C20.7704 21.5056 21.1001 19.141 21.3838 16.7687L21.8883 12.7985C22.0744 15.1938 22.2666 17.5901 22.4649 19.9875L23.3436 30.3246L23.5506 32.7873L23.9585 30.3522C24.4032 27.7008 24.8648 25.0494 25.288 22.3935L29.157 22.3582H29.2628L29.3364 22.2754C29.8555 21.667 30.4586 21.1357 31.1275 20.6974C31.7945 20.2696 32.5475 19.9522 33.328 19.92C34.1213 19.9144 34.9002 20.1317 35.5761 20.5472C36.2694 20.9577 36.891 21.4788 37.4162 22.0898L37.4576 22.1343L38.8194 22.1282Z" fill="white"/>
<path d="M60.7211 17.2813C60.7901 16.8857 60.9297 16.6772 61.1168 16.6772C61.3039 16.6772 61.4419 16.7937 61.744 17.3979L68.0941 30.3296L74.4196 17.2353C74.6052 16.8627 74.7263 16.6772 74.9303 16.6772C75.1342 16.6772 75.2799 16.9087 75.3489 17.3979L77.4682 31.6315C77.6767 33.096 77.9098 33.7784 78.6075 33.9808C79.0729 34.1332 79.5593 34.2113 80.049 34.2124C80.2591 34.2124 80.4216 34.2354 80.4216 34.3749C80.4216 34.562 80.1425 34.631 79.8159 34.631C79.2347 34.631 76.0252 34.585 75.0959 34.5145C74.5607 34.4685 74.4212 34.3994 74.4212 34.2599C74.4212 34.1204 74.5147 34.0728 74.6772 34.0038C74.8168 33.9563 74.8858 33.6542 74.7923 33.004L73.3983 22.8831H73.3048L68.2351 33.257C67.7 34.3488 67.5834 34.5589 67.3733 34.5589C67.1632 34.5589 66.9317 34.0989 66.5591 33.395C66.0009 32.3216 64.1638 28.767 63.8847 28.1168C63.6761 27.6276 62.2807 24.8843 61.4664 23.1392H61.3667L60.1584 32.2097C60.1126 32.5723 60.0891 32.9375 60.0878 33.303C60.0878 33.7447 60.3945 33.9532 60.7855 34.0467C61.1059 34.1214 61.4335 34.1605 61.7624 34.1633C61.9494 34.1633 62.112 34.2093 62.112 34.3258C62.112 34.5359 61.9019 34.5819 61.5538 34.5819C60.577 34.5819 59.5296 34.5114 59.111 34.5114C58.6924 34.5114 57.553 34.5819 56.8108 34.5819C56.5777 34.5819 56.3922 34.5359 56.3922 34.3258C56.3922 34.2093 56.5317 34.1633 56.7633 34.1633C56.9983 34.1676 57.233 34.1439 57.4625 34.0928C58.1127 33.9532 58.2998 33.0469 58.4148 32.2526L60.7211 17.2813Z" fill="white"/>
<path d="M83.2557 25.352C83.2557 22.351 83.2557 21.7928 83.2327 21.1656C83.1867 20.4909 83.0012 20.2823 82.3494 20.0922C82.0813 20.0401 81.8083 20.0169 81.5352 20.0231C81.3266 20.0231 81.1871 19.9526 81.1871 19.8131C81.1871 19.6735 81.3496 19.6275 81.6471 19.6275C82.7205 19.6275 84.0194 19.6735 84.6006 19.6735C85.2523 19.6735 89.7868 19.6965 90.1824 19.6735C90.471 19.6499 90.7582 19.611 91.0427 19.557C91.1493 19.5187 91.2584 19.4879 91.3693 19.465C91.4843 19.465 91.5089 19.557 91.5089 19.6505C91.4231 20.0722 91.3682 20.4997 91.3448 20.9294C91.3218 21.1395 91.2758 22.0029 91.2298 22.2329C91.2052 22.3249 91.1592 22.558 90.9967 22.558C90.8341 22.558 90.8341 22.4644 90.8341 22.3019C90.8362 22.0547 90.7887 21.8097 90.6946 21.5812C90.5321 21.2315 90.368 20.9524 89.3451 20.8604C88.9955 20.8129 86.5542 20.7669 86.1356 20.7669C86.0436 20.7669 85.996 20.8374 85.996 20.9524V25.8365C85.996 25.9531 86.019 26.0466 86.1356 26.0466C86.5956 26.0466 89.2516 26.0466 89.7178 26.0006C90.184 25.9546 90.4845 25.8841 90.6946 25.6939C90.8571 25.5544 90.9262 25.4394 91.0197 25.4394C91.1132 25.4394 91.1822 25.5314 91.1822 25.6479C91.1822 25.7645 91.1362 26.0896 91.0197 27.0894C90.9737 27.485 90.9262 28.2763 90.9262 28.4159C90.9262 28.5784 90.9032 28.8575 90.7176 28.8575C90.5781 28.8575 90.5321 28.7885 90.5321 28.6949C90.5075 28.4849 90.5075 28.2349 90.4615 27.9742C90.345 27.5786 90.0889 27.2765 89.3221 27.2075C88.9495 27.1615 86.6248 27.1139 86.1126 27.1139C86.019 27.1139 85.996 27.2075 85.996 27.324V28.9035C85.996 29.5782 85.973 31.2528 85.996 31.834C86.0436 33.1834 86.6708 33.4855 88.764 33.4855C89.2991 33.4855 90.1594 33.4625 90.6946 33.2294C91.2052 32.9979 91.4383 32.5792 91.5779 31.765C91.6239 31.5549 91.6714 31.4583 91.811 31.4583C91.9505 31.4583 91.9965 31.7128 91.9965 31.9183C91.9686 32.6574 91.8793 33.393 91.7297 34.1173C91.5901 34.628 91.4046 34.628 90.6363 34.628C89.1029 34.628 87.8684 34.6049 86.8686 34.5589C85.8688 34.5129 85.102 34.5114 84.4963 34.5114C84.2648 34.5114 83.8216 34.5359 83.3339 34.5359C82.8448 34.5589 82.3341 34.5819 81.9155 34.5819C81.6594 34.5819 81.5198 34.5114 81.5198 34.3719C81.5198 34.2799 81.5904 34.1633 81.8449 34.1633C82.0872 34.1696 82.3292 34.1459 82.5657 34.0928C82.9843 34.0008 83.1008 33.6327 83.1714 33.0469C83.2634 32.2097 83.2634 30.6517 83.2634 28.8376L83.2557 25.352Z" fill="white"/>
<path d="M95.7948 25.352C95.7948 22.351 95.7948 21.7928 95.7718 21.1656C95.7243 20.4909 95.5387 20.2823 94.887 20.0922C94.6193 20.0401 94.3468 20.0169 94.0742 20.0232C93.8642 20.0232 93.7246 19.9526 93.7246 19.8131C93.7246 19.6735 93.8872 19.6275 94.1847 19.6275C95.2581 19.6275 96.5554 19.6735 97.1381 19.6735C97.7653 19.6735 99.2313 19.6275 100.463 19.6275C103.022 19.6275 106.463 19.6275 108.696 21.8833C109.72 22.9061 110.627 24.5577 110.627 26.9069C110.654 28.9696 109.849 30.9563 108.394 32.4182C107.465 33.3491 105.301 34.7445 101.533 34.7445C100.789 34.7445 99.9045 34.6755 99.0918 34.628C98.279 34.5804 97.5322 34.5114 97.0216 34.5114C96.7885 34.5114 96.3468 34.536 95.8577 34.536C95.37 34.559 94.8578 34.582 94.4392 34.582C94.1847 34.582 94.0451 34.5114 94.0451 34.3719C94.0451 34.2799 94.1141 34.1633 94.3702 34.1633C94.6124 34.1695 94.8545 34.1458 95.0909 34.0928C95.5096 34.0008 95.6261 33.6328 95.6951 33.047C95.7887 32.2097 95.7887 30.6517 95.7887 28.8376L95.7948 25.352ZM98.5397 27.5387C98.5397 29.6304 98.5627 31.1424 98.5857 31.538C98.6087 32.0272 98.6562 32.7249 98.8188 32.9335C99.0749 33.3061 99.8922 33.7248 101.493 33.7248C103.353 33.7248 104.726 33.3981 105.959 32.3753C107.284 31.2819 107.702 29.5154 107.702 27.4682C107.702 24.9564 106.702 23.3278 105.795 22.5381C103.911 20.8635 101.679 20.6534 100.075 20.6534C99.6561 20.6534 98.9813 20.701 98.8188 20.793C98.6431 20.8376 98.5315 21.0101 98.5627 21.1886C98.5397 21.8633 98.5397 23.4888 98.5397 25.0499V27.5387Z" fill="white"/>
<path d="M115.193 23.7464C115.193 20.2194 115.193 19.56 115.147 18.8163C115.099 18.025 114.914 17.6539 114.147 17.4914C113.848 17.4385 113.543 17.4149 113.239 17.4208C112.985 17.4208 112.845 17.3748 112.845 17.2123C112.845 17.0497 113.008 17.0022 113.356 17.0022C113.985 17.0022 114.658 17.0252 115.239 17.0252C115.852 17.0482 116.38 17.0727 116.705 17.0727C117.449 17.0727 122.072 17.0727 122.52 17.0482C122.856 17.0207 123.189 16.9741 123.52 16.9087C123.641 16.8672 123.766 16.8364 123.892 16.8167C124.007 16.8167 124.03 16.9087 124.03 17.0252C124.03 17.1878 123.915 17.4668 123.845 18.5372C123.822 18.7703 123.776 19.7931 123.728 20.0707C123.705 20.1872 123.659 20.3268 123.497 20.3268C123.334 20.3268 123.287 20.2102 123.287 20.0017C123.288 19.7166 123.241 19.4334 123.147 19.1644C122.985 18.7458 122.751 18.4667 121.589 18.3271C121.193 18.2796 118.752 18.2336 118.286 18.2336C118.171 18.2336 118.123 18.3026 118.123 18.4667V24.3506C118.123 24.5131 118.146 24.6052 118.286 24.6052C118.798 24.6052 121.473 24.6052 122.008 24.5592C122.543 24.5132 122.916 24.4426 123.124 24.2111C123.287 24.024 123.38 23.9044 123.497 23.9044C123.589 23.9044 123.659 23.9504 123.659 24.0899C123.659 24.2295 123.566 24.6006 123.474 25.7875C123.449 26.2475 123.38 27.1829 123.38 27.3455C123.38 27.5326 123.38 27.7871 123.17 27.7871C123.113 27.7955 123.055 27.7762 123.014 27.7351C122.972 27.6941 122.953 27.636 122.962 27.5786C122.95 27.2976 122.919 27.0178 122.868 26.7413C122.751 26.2812 122.426 25.927 121.566 25.8335C121.124 25.7875 118.821 25.7645 118.263 25.7645C118.146 25.7645 118.123 25.858 118.123 25.9976V27.8377C118.123 28.6275 118.1 30.7682 118.123 31.4414C118.171 33.0469 118.542 33.395 120.914 33.395C121.528 33.395 122.497 33.395 123.101 33.1175C123.705 32.8399 123.984 32.3507 124.147 31.3954C124.194 31.1393 124.24 31.0473 124.403 31.0473C124.589 31.0473 124.589 31.2328 124.589 31.4659C124.548 32.3324 124.445 33.1949 124.282 34.0468C124.119 34.6509 123.911 34.6509 123.026 34.6509C121.282 34.6509 120.003 34.6049 119.004 34.5819C118.004 34.5589 117.282 34.5114 116.584 34.5114C116.328 34.5114 115.817 34.5114 115.259 34.5359C114.724 34.5359 114.12 34.5819 113.653 34.5819C113.347 34.5819 113.193 34.5114 113.193 34.3488C113.193 34.2323 113.287 34.1633 113.566 34.1633C113.848 34.1637 114.129 34.1324 114.403 34.0698C114.863 33.9777 114.984 33.4656 115.076 32.7908C115.193 31.814 115.193 29.9769 115.193 27.8377V23.7464Z" fill="white"/>
<path d="M128.561 25.352C128.561 22.351 128.561 21.7928 128.538 21.1656C128.49 20.4909 128.304 20.2823 127.653 20.0922C127.385 20.0401 127.112 20.017 126.838 20.0232C126.63 20.0232 126.49 19.9526 126.49 19.8131C126.49 19.6735 126.653 19.6275 126.95 19.6275C128.024 19.6275 129.323 19.6735 129.904 19.6735C130.533 19.6735 131.997 19.6275 133.23 19.6275C135.788 19.6275 139.23 19.6275 141.463 21.8833C142.486 22.9061 143.394 24.5577 143.394 26.9069C143.421 28.9696 142.616 30.9563 141.161 32.4182C140.23 33.3491 138.068 34.7445 134.3 34.7445C133.555 34.7445 132.672 34.6755 131.858 34.628C131.043 34.5804 130.299 34.5114 129.789 34.5114C129.556 34.5114 129.114 34.536 128.625 34.536C128.137 34.559 127.625 34.582 127.206 34.582C126.95 34.582 126.811 34.5114 126.811 34.3719C126.811 34.2799 126.881 34.1633 127.136 34.1633C127.379 34.1695 127.621 34.1458 127.858 34.0928C128.277 34.0008 128.393 33.6328 128.462 33.047C128.556 32.2097 128.556 30.6517 128.556 28.8376L128.561 25.352ZM131.304 27.5387C131.304 29.6304 131.327 31.1424 131.351 31.538C131.374 32.0272 131.42 32.7249 131.583 32.9335C131.839 33.3061 132.656 33.7248 134.259 33.7248C136.119 33.7248 137.491 33.3981 138.723 32.3753C140.049 31.2819 140.468 29.5154 140.468 27.4682C140.468 24.9564 139.468 23.3278 138.56 22.5381C136.677 20.8635 134.444 20.6534 132.839 20.6534C132.42 20.6534 131.746 20.701 131.583 20.793C131.408 20.8382 131.296 21.0102 131.327 21.1886C131.304 21.8633 131.304 23.4888 131.304 25.0499V27.5387Z" fill="white"/>
<path d="M147.958 23.7464C147.958 20.2194 147.958 19.56 147.912 18.8163C147.864 18.025 147.679 17.6539 146.91 17.4914C146.611 17.4385 146.308 17.4149 146.004 17.4208C145.748 17.4208 145.608 17.3748 145.608 17.2123C145.608 17.0497 145.771 17.0022 146.121 17.0022C147.347 17.0022 148.818 17.0727 149.47 17.0727C150.423 17.0727 151.77 17.0022 152.843 17.0022C155.757 17.0022 156.797 17.979 157.169 18.3287C157.896 19.0656 158.312 20.0538 158.332 21.0889C158.332 24.392 155.913 26.7183 152.61 26.7183C152.447 26.7221 152.284 26.7144 152.123 26.6953C152.006 26.6708 151.843 26.6478 151.843 26.4852C151.843 26.2997 152.006 26.2291 152.494 26.2291C153.797 26.2291 155.611 24.7646 155.611 22.3954C155.611 21.6287 155.541 20.0691 154.239 18.9068C153.604 18.3246 152.774 18.0008 151.912 17.999C151.607 17.9875 151.302 18.0189 151.006 18.0925C150.89 18.1385 150.819 18.278 150.819 18.5341V27.8377C150.819 29.9846 150.819 31.814 150.936 32.8139C151.006 33.4656 151.146 33.9778 151.843 34.0698C152.236 34.1255 152.632 34.1567 153.029 34.1633C153.285 34.1633 153.401 34.2323 153.401 34.3489C153.401 34.5114 153.216 34.582 152.96 34.582C151.426 34.582 149.959 34.5114 149.355 34.5114C148.819 34.5114 147.361 34.582 146.424 34.582C146.117 34.582 145.964 34.5114 145.964 34.3489C145.964 34.2323 146.056 34.1633 146.335 34.1633C146.617 34.164 146.898 34.1326 147.172 34.0698C147.633 33.9778 147.755 33.4656 147.847 32.7909C147.964 31.814 147.964 29.9769 147.964 27.8377L147.958 23.7464Z" fill="white"/>
<path d="M162.328 25.352C162.328 22.351 162.328 21.7928 162.305 21.1656C162.259 20.4909 162.073 20.2823 161.422 20.0922C161.154 20.0401 160.881 20.017 160.607 20.0232C160.397 20.0232 160.258 19.9526 160.258 19.8131C160.258 19.6735 160.422 19.6275 160.718 19.6275C161.791 19.6275 163.09 19.6735 163.509 19.6735C164.206 19.6735 166.067 19.6275 166.695 19.6275C167.997 19.6275 169.485 19.7441 170.578 20.4648C171.161 20.8604 172.021 21.8603 172.021 23.1852C172.021 24.6512 171.184 25.9454 169.183 27.5587C170.997 29.7914 172.44 31.581 173.671 32.8139C174.812 33.9532 175.533 34.0407 175.858 34.1173C176.018 34.1533 176.183 34.1688 176.347 34.1633C176.475 34.1525 176.588 34.2447 176.603 34.3719C176.603 34.536 176.463 34.582 176.207 34.582H174.26C173.119 34.582 172.562 34.4654 172.027 34.1863C171.142 33.7447 170.376 32.8062 169.236 31.2727C168.422 30.1993 167.562 28.8774 167.306 28.5754C167.208 28.4762 167.072 28.4252 166.933 28.4358L165.093 28.3898C165.049 28.3871 165.006 28.4033 164.975 28.4344C164.944 28.4655 164.928 28.5085 164.93 28.5523V28.8314C164.93 30.6716 164.953 32.2051 165.047 33.0408C165.116 33.622 165.209 33.9947 165.837 34.0867C166.168 34.1322 166.503 34.1557 166.838 34.1572C166.965 34.1464 167.078 34.2388 167.092 34.3657C167.092 34.5053 166.93 34.5758 166.674 34.5758C165.488 34.5758 163.791 34.5053 163.489 34.5053C163.093 34.5053 161.791 34.5758 160.977 34.5758C160.721 34.5758 160.581 34.5053 160.581 34.3657C160.581 34.2737 160.65 34.1572 160.906 34.1572C161.149 34.1634 161.391 34.1397 161.627 34.0867C162.046 33.9947 162.162 33.6266 162.233 33.0408C162.325 32.2036 162.325 30.6455 162.325 28.8314L162.328 25.352ZM164.935 26.8855C164.935 27.094 164.981 27.1646 165.12 27.2336C165.628 27.3685 166.153 27.4315 166.678 27.4206C167.493 27.4206 167.772 27.3501 168.121 27.094C168.749 26.6524 169.446 25.7921 169.446 24.1635C169.446 21.3726 167.54 20.6519 166.33 20.6519C165.926 20.6418 165.521 20.6653 165.12 20.7224C164.981 20.7684 164.935 20.839 164.935 21.0015V26.8855Z" fill="white"/>
<path d="M177.885 25.352C177.885 22.351 177.885 21.7928 177.862 21.1656C177.816 20.4909 177.631 20.2823 176.979 20.0922C176.711 20.0401 176.438 20.0169 176.165 20.0231C175.954 20.0231 175.815 19.9526 175.815 19.8131C175.815 19.6735 175.979 19.6275 176.275 19.6275C177.348 19.6275 178.647 19.6735 179.228 19.6735C179.879 19.6735 184.415 19.6965 184.81 19.6735C185.099 19.6498 185.386 19.6109 185.671 19.557C185.777 19.5189 185.885 19.4881 185.996 19.465C186.112 19.465 186.135 19.557 186.135 19.6505C186.05 20.0722 185.995 20.4997 185.973 20.9294C185.95 21.1395 185.904 22.0029 185.856 22.2329C185.833 22.3249 185.787 22.558 185.625 22.558C185.485 22.558 185.461 22.4644 185.461 22.3019C185.463 22.0547 185.415 21.8097 185.321 21.5812C185.158 21.2315 184.996 20.9524 183.973 20.8604C183.623 20.8129 181.182 20.7669 180.763 20.7669C180.67 20.7669 180.624 20.8374 180.624 20.9524V25.8365C180.624 25.9531 180.647 26.0466 180.763 26.0466C181.224 26.0466 183.88 26.0466 184.344 26.0006C184.833 25.9531 185.111 25.8841 185.321 25.6939C185.485 25.5544 185.554 25.4394 185.648 25.4394C185.75 25.4521 185.823 25.5455 185.81 25.6479C185.81 25.7645 185.764 26.0896 185.648 27.0894C185.6 27.485 185.554 28.2763 185.554 28.4159C185.554 28.5784 185.531 28.8575 185.346 28.8575C185.206 28.8575 185.158 28.7885 185.158 28.6949C185.135 28.4849 185.135 28.2349 185.089 27.9742C184.973 27.5786 184.717 27.2765 183.95 27.2075C183.577 27.1615 181.251 27.1139 180.74 27.1139C180.647 27.1139 180.624 27.2075 180.624 27.324V28.9035C180.624 29.5782 180.601 31.2528 180.624 31.834C180.67 33.1834 181.299 33.4855 183.384 33.4855C183.919 33.4855 184.78 33.4625 185.313 33.2294C185.847 32.9963 186.059 32.5792 186.198 31.765C186.244 31.5549 186.29 31.4583 186.43 31.4583C186.594 31.4583 186.617 31.7128 186.617 31.9183C186.584 32.6537 186.491 33.3851 186.338 34.105C186.198 34.6157 186.011 34.6157 185.244 34.6157C183.711 34.6157 182.476 34.5927 181.477 34.5467C180.477 34.5007 179.708 34.4991 179.104 34.4991C178.871 34.4991 178.43 34.5237 177.942 34.5237C177.453 34.5467 176.942 34.5697 176.523 34.5697C176.267 34.5697 176.128 34.4991 176.128 34.3596C176.128 34.2676 176.197 34.151 176.453 34.151C176.695 34.1572 176.937 34.1335 177.174 34.0805C177.592 33.9885 177.709 33.6205 177.787 33.0347C177.879 32.1974 177.879 30.6394 177.879 28.8253L177.885 25.352Z" fill="white"/>
<path d="M190.422 25.352C190.422 22.351 190.422 21.7928 190.399 21.1656C190.353 20.4909 190.167 20.2823 189.515 20.0922C189.247 20.0401 188.974 20.017 188.701 20.0232C188.493 20.0232 188.353 19.9526 188.353 19.8131C188.353 19.6735 188.516 19.6275 188.813 19.6275C189.886 19.6275 191.185 19.6735 191.767 19.6735C192.604 19.6735 194.232 19.6275 195.162 19.6275C197.721 19.6275 198.65 20.4648 198.977 20.7439C199.614 21.3712 199.981 22.2224 200 23.1162C200 25.9071 197.767 27.9068 194.86 27.9068C194.658 27.9106 194.456 27.9029 194.255 27.8838C194.127 27.8963 194.013 27.8032 193.999 27.6752C193.999 27.5111 194.232 27.4191 194.674 27.4191C195.813 27.4191 197.419 26.2322 197.419 24.2096C197.419 23.5578 197.348 22.2559 196.209 21.2791C195.64 20.7891 194.912 20.524 194.162 20.5338C193.864 20.5243 193.567 20.5558 193.279 20.6274C193.162 20.6734 193.116 20.7899 193.116 21V28.8376C193.116 30.6517 193.116 32.2112 193.21 33.07C193.279 33.6281 193.395 34.0008 193.999 34.0928C194.346 34.14 194.696 34.1636 195.047 34.1633C195.278 34.1633 195.372 34.2799 195.372 34.3719C195.372 34.5114 195.209 34.582 194.999 34.582C193.628 34.582 192.185 34.5114 191.65 34.5114C191.19 34.5114 189.883 34.582 189.069 34.582C188.813 34.582 188.674 34.5114 188.674 34.3719C188.674 34.2799 188.744 34.1633 188.999 34.1633C189.241 34.1696 189.483 34.1459 189.719 34.0928C190.138 34.0008 190.255 33.6328 190.333 33.047C190.425 32.2097 190.425 30.6517 190.425 28.8376L190.422 25.352Z" fill="white"/>
<g opacity="0.15">
<path opacity="0.15" d="M148.364 27.5725V27.8409C148.364 29.9877 148.364 31.8416 148.244 32.8415C148.189 33.2509 148.114 33.7968 147.808 34.148C147.962 34.148 148.103 34.1388 148.244 34.1342C148.704 34.1204 149.118 34.1065 149.351 34.1065C149.584 34.1065 149.952 34.1173 150.402 34.1296L151.03 34.148C150.625 33.7753 150.563 33.1926 150.527 32.8614C150.408 31.8416 150.408 29.9877 150.408 27.8409V27.137C149.717 27.2801 149.035 27.4253 148.364 27.5725Z" fill="white"/>
<path opacity="0.15" d="M129.406 34.1173C129.559 34.1173 129.699 34.1081 129.797 34.1081C130.281 34.1081 130.99 34.148 131.901 34.2262L132.477 34.2615C133.104 34.3013 133.752 34.3412 134.308 34.3412C138.248 34.3412 140.217 32.7985 140.881 32.1345C141.778 31.2336 142.42 30.1107 142.741 28.8805C142.041 29.0492 141.373 29.2102 140.726 29.3636C140.474 30.8357 139.902 31.9367 138.987 32.6912C137.769 33.7018 136.355 34.1342 134.262 34.1342C132.144 34.1342 131.45 33.4579 131.25 33.1666C131.077 32.9442 130.991 32.5041 130.944 31.5595C130.936 31.4414 130.93 31.2191 130.924 30.9108C130.297 30.9415 129.645 30.9599 128.961 30.966C128.952 31.8539 128.929 32.5977 128.874 33.096C128.84 33.3797 128.786 33.8183 128.536 34.1357H128.611C128.916 34.1296 129.186 34.1173 129.406 34.1173Z" fill="white"/>
<path opacity="0.15" d="M116.585 34.1065C117.243 34.1065 117.95 34.128 119.023 34.1771L119.686 34.1939C120.563 34.2169 121.656 34.2461 123.027 34.2461C123.808 34.2461 123.808 34.2461 123.889 33.9394C123.938 33.7416 124.004 33.2999 124.061 32.8338C123.862 33.1202 123.587 33.3458 123.268 33.4855C122.582 33.8029 121.581 33.8029 120.911 33.8029C118.562 33.8029 117.77 33.4625 117.712 31.4521C117.703 31.2022 117.701 30.7605 117.701 30.2606C117.023 30.187 116.321 30.1068 115.593 30.0199C115.582 31.2098 115.554 32.1989 115.479 32.8368C115.424 33.2386 115.349 33.7753 115.058 34.128H115.26C115.807 34.1065 116.333 34.1065 116.585 34.1065Z" fill="white"/>
<path opacity="0.15" d="M190.833 27.5234V28.8421C190.833 30.6639 190.833 32.2372 190.736 33.096C190.702 33.3827 190.649 33.829 190.391 34.1464L190.681 34.1357C191.092 34.1219 191.448 34.1081 191.658 34.1081C191.868 34.1081 192.208 34.1188 192.633 34.1311L193.202 34.1479C192.895 33.8412 192.845 33.4042 192.809 33.1251C192.714 32.2357 192.714 30.6716 192.714 28.8421V27.9834C192.081 27.8301 191.454 27.6767 190.833 27.5234Z" fill="white"/>
<path opacity="0.15" d="M180.224 28.9035V27.3225C180.224 26.8349 180.554 26.7091 180.749 26.7091C181.221 26.7091 183.593 26.7536 184.009 26.8058C184.566 26.8564 184.964 27.0296 185.22 27.3409C185.231 27.2321 185.24 27.1324 185.251 27.0465L185.331 26.3702C185.222 26.3503 185.11 26.3273 185.001 26.3089C184.8 26.3579 184.594 26.3912 184.388 26.4086C183.966 26.45 181.934 26.4561 180.767 26.4561C180.563 26.4561 180.22 26.3258 180.22 25.8427V25.6097C179.571 25.532 178.928 25.4609 178.291 25.3965V28.8437C178.291 30.6655 178.291 32.2388 178.196 33.0976C178.162 33.3812 178.108 33.8198 177.86 34.1372H177.933C178.24 34.1372 178.505 34.128 178.725 34.1219C178.878 34.1219 179.018 34.1127 179.116 34.1127C179.576 34.1127 180.143 34.1265 180.833 34.1434L181.497 34.1602C182.508 34.2062 183.733 34.2292 185.256 34.2292C185.469 34.2432 185.682 34.2308 185.892 34.1924C185.92 34.1376 185.941 34.0793 185.955 34.0192C186.023 33.7327 186.075 33.4423 186.108 33.1497C185.942 33.3486 185.732 33.5061 185.495 33.6097C184.891 33.8735 184.007 33.9026 183.396 33.9026C181.292 33.9026 180.28 33.5959 180.22 31.8585C180.203 31.4399 180.211 30.4784 180.22 29.7117C180.223 29.3927 180.224 29.1075 180.224 28.9035Z" fill="white"/>
<path opacity="0.15" d="M165.096 27.9834L166.944 28.031C167.187 28.0235 167.422 28.1173 167.592 28.2901C167.746 28.4634 167.967 28.79 168.279 29.2409C168.651 29.7761 169.112 30.4416 169.56 31.0289C170.707 32.5747 171.431 33.4303 172.208 33.8183C172.638 34.0422 173.108 34.171 174.258 34.171H174.777C174.262 33.8854 173.794 33.5235 173.387 33.0976C172.204 31.9137 170.856 30.2545 169.149 28.1521L168.871 27.8117C168.803 27.7271 168.771 27.6188 168.782 27.5107C168.794 27.4025 168.848 27.3033 168.933 27.2351C169.951 26.4193 170.65 25.6893 171.08 24.9809C170.644 24.9809 170.213 24.9809 169.784 24.9809C169.583 26.2797 168.925 27.0235 168.353 27.4344C167.927 27.7411 167.565 27.8347 166.675 27.8347C166.106 27.8445 165.539 27.7753 164.989 27.6292C164.968 27.623 164.948 27.6148 164.929 27.6047C164.641 27.4605 164.518 27.2474 164.518 26.8916V25.1618C163.915 25.2007 163.318 25.2452 162.728 25.2952V28.8452C162.728 30.667 162.728 32.2404 162.633 33.0991C162.6 33.3859 162.546 33.8306 162.288 34.1495L162.619 34.1373C162.998 34.1235 163.319 34.1112 163.484 34.1112C163.587 34.1112 163.849 34.1112 164.199 34.1296L165.019 34.1541C164.726 33.8475 164.676 33.4242 164.637 33.1037C164.553 32.3523 164.518 31.0795 164.518 28.8452V28.5662C164.509 28.4099 164.567 28.2571 164.677 28.146C164.787 28.0349 164.94 27.9758 165.096 27.9834Z" fill="white"/>
<path opacity="0.15" d="M64.2583 27.9589C64.5266 28.5861 66.3284 32.0778 66.9188 33.2095L66.9924 33.346C67.1243 33.5944 67.2685 33.8658 67.3773 34.0345C67.5031 33.8198 67.6932 33.4334 67.865 33.0791L71.7263 25.1818L71.0239 25.2002L68.46 30.506C68.392 30.6468 68.2498 30.7367 68.0935 30.7375C67.9376 30.738 67.7952 30.6492 67.727 30.5091L65.3056 25.579C64.59 25.6526 63.8943 25.7338 63.2186 25.8228L63.4057 26.2015C63.8274 27.0542 64.1601 27.7289 64.2583 27.9589Z" fill="white"/>
<path opacity="0.15" d="M60.5496 26.2292C60.2736 26.2767 60.0037 26.3242 59.7354 26.3825L58.8153 32.3293C58.7417 32.8338 58.6205 33.6603 58.1682 34.1449H58.2203C58.5883 34.1295 58.915 34.1157 59.1097 34.1157C59.2799 34.1157 59.5498 34.1265 59.8764 34.1403L60.0451 34.148C59.8061 33.9382 59.6725 33.6332 59.6802 33.3153C59.6815 32.9349 59.7056 32.555 59.7522 32.1775L60.5496 26.2292Z" fill="white"/>
<path opacity="0.15" d="M75.1296 34.1082C75.6632 34.148 76.9882 34.1818 78.1061 34.2017C77.416 33.7708 77.2259 32.8369 77.0618 31.6899L76.088 25.1741C75.4194 25.1598 74.7621 25.1526 74.116 25.1526L75.1894 32.9473C75.2247 33.1973 75.3044 33.7539 75.1204 34.1082H75.1296Z" fill="white"/>
<path opacity="0.15" d="M96.6389 34.1174C96.7923 34.1174 96.9318 34.1082 97.03 34.1082C97.5145 34.1082 98.223 34.148 99.1339 34.2262L99.7105 34.2615C100.338 34.3014 100.986 34.3412 101.541 34.3412C105.482 34.3412 107.451 32.7986 108.114 32.1346C108.911 31.3358 109.508 30.3601 109.856 29.2869L108.016 29.0293C107.796 30.6716 107.208 31.88 106.223 32.6912C105.006 33.7018 103.592 34.1342 101.498 34.1342C99.4053 34.1342 98.6876 33.458 98.4868 33.1666C98.3135 32.9442 98.2276 32.5041 98.1801 31.5595C98.1571 31.1685 98.1325 29.6611 98.1325 27.5434L96.205 27.2367V28.8391C96.205 30.6609 96.205 32.2342 96.1099 33.093C96.0761 33.3767 96.0225 33.8153 95.774 34.1327H95.8477C96.1482 34.1296 96.4166 34.1174 96.6389 34.1174Z" fill="white"/>
<path opacity="0.15" d="M85.596 28.9035V27.3225C85.596 26.8349 85.9257 26.7091 86.1205 26.7091C86.5928 26.7091 88.9651 26.7536 89.3807 26.8057C89.9373 26.8563 90.336 27.0296 90.5936 27.3409C90.6028 27.232 90.612 27.1323 90.6228 27.0465L90.701 26.3871L90.2977 26.3303C90.1215 26.3669 89.9433 26.393 89.764 26.4086C89.3438 26.45 87.3105 26.4561 86.1435 26.4561C85.9395 26.4561 85.596 26.3257 85.596 25.8427V25.7722C84.9448 25.7047 84.3023 25.6434 83.6685 25.5882V28.8437C83.6685 30.6655 83.6685 32.2388 83.5719 33.0991C83.5381 33.3812 83.486 33.8198 83.236 34.1372H83.3112C83.6179 34.1372 83.8816 34.128 84.1009 34.1219C84.2542 34.1219 84.3938 34.1127 84.4919 34.1127C84.952 34.1127 85.5209 34.1265 86.211 34.1434L86.8734 34.1602C87.884 34.2062 89.1092 34.2292 90.632 34.2292C90.8448 34.2432 91.0586 34.2309 91.2684 34.1924C91.2966 34.137 91.3177 34.0783 91.3312 34.0176C91.3997 33.7316 91.4509 33.4418 91.4846 33.1497C91.3186 33.3486 91.1086 33.5061 90.8712 33.6097C90.267 33.8735 89.3837 33.9026 88.7719 33.9026C86.6679 33.9026 85.6558 33.5959 85.596 31.8585C85.5792 31.4399 85.5868 30.4784 85.596 29.7116C85.596 29.3927 85.596 29.1075 85.596 28.9035Z" fill="white"/>
</g>
</svg>
