<svg width="21" height="15" viewBox="0 0 21 15" fill="none" xmlns="http://www.w3.org/2000/svg">
<g id="youtube copy">
<path id="Shape" fill-rule="evenodd" clip-rule="evenodd" d="M18.7866 0.49585C19.6433 0.726562 20.3188 1.40198 20.5493 2.25879C20.9778 3.82373 20.9613 7.08569 20.9613 7.08569C20.9613 7.08569 20.9613 10.3311 20.5496 11.8961C20.3188 12.7528 19.6434 13.4282 18.7866 13.6588C17.2216 14.0708 10.9614 14.0708 10.9614 14.0708C10.9614 14.0708 4.71753 14.0708 3.13611 13.6425C2.2793 13.4117 1.604 12.7363 1.37329 11.8796C0.961426 10.3311 0.961426 7.06921 0.961426 7.06921C0.961426 7.06921 0.961426 3.82373 1.37329 2.25879C1.60376 1.4021 2.29578 0.710083 3.13599 0.479614C4.70105 0.067627 10.9612 0.067627 10.9612 0.067627C10.9612 0.067627 17.2216 0.067627 18.7866 0.49585ZM14.1738 7.06909L8.96802 4.0708V10.0674L14.1738 7.06909Z" fill="#F5C744"/>
</g>
</svg>
