<svg width="179" height="186" viewBox="0 0 179 186" fill="none" xmlns="http://www.w3.org/2000/svg">
<g opacity="0.02">
<path d="M88.9903 185.101C88.3346 185.094 87.6944 184.901 87.1439 184.545C70.4134 174.25 55.8638 162.275 43.9253 148.951C24.6681 127.566 11.1905 101.619 4.76977 73.5674C1.08307 57.6913 -0.440617 41.3013 0.109102 23.5011C0.156903 22.1029 0.246528 20.6988 0.330181 19.3185C0.413834 17.9382 0.521391 16.3906 0.557242 14.9446C0.599068 13.1521 1.59693 12.0168 3.54484 11.6045C7.17777 10.8277 10.7987 10.0151 14.4257 9.21442C22.1038 7.49356 30.0389 5.71892 37.9262 4.27292C53.7241 1.40538 69.7494 -0.0245558 85.8055 0.000318998H86.0564C107.095 0.000318998 128.367 2.1577 151.073 6.57338C155.775 7.48758 160.525 8.53324 165.114 9.56098C168.216 10.2422 171.323 10.9293 174.436 11.5806C176.437 11.9989 177.471 13.1999 177.609 15.2554C178.33 25.3246 178.33 35.4326 177.609 45.5019C174.454 85.9899 159.468 121.214 133.063 150.199C121.4 162.998 107.322 174.489 91.237 184.354C90.5756 184.814 89.7955 185.073 88.9903 185.101ZM4.23797 15.2494C4.19614 16.7073 4.10054 18.1653 4.01091 19.5814C3.92128 20.9975 3.83764 22.2822 3.79581 23.6147C3.25207 41.1041 4.74586 57.1714 8.36086 72.7369C14.6408 100.182 27.8266 125.568 46.6679 146.489C58.3554 159.533 72.6063 171.268 89.0142 181.372L89.2472 181.235C105.052 171.549 118.86 160.28 130.291 147.738C156.128 119.373 170.797 84.8904 173.91 45.239C174.617 35.3427 174.617 25.4086 173.91 15.5123C173.91 15.3988 173.91 15.3211 173.91 15.2613L173.689 15.2016C170.564 14.5503 167.445 13.8631 164.326 13.176C159.755 12.1721 155.034 11.1265 150.374 10.1884C127.907 5.80257 106.862 3.66345 86.0505 3.66345H85.1243C69.5231 3.67114 53.9538 5.07091 38.6014 7.8461C30.7798 9.28015 22.8806 11.0488 15.2383 12.7637C11.6054 13.5763 7.96649 14.3889 4.32759 15.1538L4.23797 15.2494Z" fill="white"/>
<path d="M151.258 71.0818V85.3147H146.406C144.368 82.8454 141.948 80.719 139.236 79.0168C136.458 77.29 133.195 76.0711 129.801 76.1667C126.407 76.2623 123.228 77.5589 120.414 79.2618C117.741 80.9302 115.313 82.9635 113.202 85.3028L97.6186 85.1653H96.7463L96.5849 86.0497C95.2106 93.4948 93.9021 100.946 92.6054 108.421L90.2154 77.6664C89.1637 64.2402 87.9687 50.8258 86.8513 37.3995L85.8116 25.0249L84.3417 37.3457L81.0016 65.0588C79.9679 73.3882 79.0357 81.7535 78.0857 90.1009L75.0562 85.3984L74.7694 84.9741H74.2974L65.3346 85.0697C64.7697 83.5269 63.9136 82.107 62.813 80.8871C61.5149 79.419 59.6334 78.6008 57.6744 78.6524C55.7503 78.8038 53.9746 79.7446 52.7687 81.2516C51.6993 82.5225 50.8638 83.9731 50.301 85.5358H26.8423V71.0997C26.8423 66.8549 30.2816 63.4129 34.5264 63.4096H69.8459V28.0782C69.849 27.6168 69.895 27.1567 69.9833 26.7039C70.6433 23.0458 73.8308 20.3871 77.5479 20.3941H100.541C104.784 20.3974 108.224 23.8348 108.231 28.0782V63.4096H143.55C145.59 63.4048 147.547 64.2105 148.993 65.6493C150.439 67.0881 151.253 69.0422 151.258 71.0818Z" fill="white"/>
<path d="M151.258 86.2228V94.0742C151.258 96.1148 150.447 98.0717 149.004 99.5141C147.56 100.956 145.603 101.766 143.562 101.764H108.243V137.096C108.237 140.73 105.692 143.866 102.136 144.619C101.615 144.727 101.085 144.782 100.553 144.78H77.5601C73.8421 144.789 70.6533 142.129 69.9955 138.47C69.9072 138.017 69.8612 137.557 69.8581 137.096V101.764H34.5386C30.2938 101.761 26.8545 98.319 26.8545 94.0742V86.7008H51.1138L51.2632 86.2945C51.8344 84.7573 52.6853 83.3392 53.7728 82.1119C54.7572 80.9103 56.1913 80.1652 57.7403 80.0504C59.2661 80.0531 60.7123 80.7314 61.6899 81.9027C62.7375 83.1221 63.519 84.5467 63.9844 86.0854L64.1756 86.6829H64.7732L73.7957 86.7785L77.9246 93.4169L79.3706 95.7353L79.7291 93.0226C80.9241 83.7969 82.2088 74.5831 83.3142 65.3394L85.2801 49.8696C85.9971 59.2029 86.746 68.5402 87.5268 77.8814L90.9505 118.16L91.7512 127.756L93.3466 118.268C95.0794 107.937 96.8779 97.6056 98.5271 87.2565L113.603 87.1191H114.009L114.296 86.7964C116.32 84.4274 118.67 82.3573 121.275 80.6479C123.88 78.9808 126.808 77.744 129.849 77.6185C132.942 77.5968 135.979 78.4436 138.615 80.0624C141.315 81.6634 143.737 83.6937 145.785 86.0734L145.952 86.2467L151.258 86.2228Z" fill="white"/>
</g>
</svg>
