<svg width="215" height="197" viewBox="0 0 215 197" fill="none" xmlns="http://www.w3.org/2000/svg">
<mask id="path-1-inside-1_494_834" fill="white">
<path fill-rule="evenodd" clip-rule="evenodd" d="M112.18 154.187H103.728C103.722 154.187 103.716 154.187 103.71 154.187H28.826C16.6955 154.187 6.82622 144.289 6.82622 132.122V29.3991C6.82622 17.2322 16.6955 7.33423 28.826 7.33423H175.649C175.65 7.33423 175.651 7.33423 175.652 7.33423H186.174C198.305 7.33423 208.174 17.2326 208.174 29.3991V132.122C208.174 144.289 198.305 154.187 186.174 154.186H167.519C166.464 154.186 165.468 154.675 164.822 155.509C164.176 156.343 163.951 157.429 164.215 158.451L171.372 186.213C171.832 187.999 170.628 189.011 170.248 189.279C169.872 189.544 168.529 190.329 167.022 189.309L117.664 155.87C116.039 154.769 114.142 154.187 112.18 154.187ZM175.649 0.508057H173.81H28.826C12.9315 0.508057 4.57764e-05 13.4682 4.57764e-05 29.3991V132.122C4.57764e-05 148.053 12.9315 161.013 28.826 161.013H103.674C103.692 161.013 103.71 161.014 103.728 161.014H112.179C112.772 161.014 113.344 161.189 113.835 161.521L163.193 194.96C164.847 196.08 166.732 196.639 168.615 196.639C170.557 196.64 172.497 196.045 174.18 194.86C177.506 192.516 178.998 188.453 177.982 184.51L171.924 161.013H186.174C202.069 161.013 215 148.053 215 132.122V29.3991C215 13.4682 202.069 0.508057 186.174 0.508057H175.649Z"/>
</mask>
<path fill-rule="evenodd" clip-rule="evenodd" d="M112.18 154.187H103.728C103.722 154.187 103.716 154.187 103.71 154.187H28.826C16.6955 154.187 6.82622 144.289 6.82622 132.122V29.3991C6.82622 17.2322 16.6955 7.33423 28.826 7.33423H175.649C175.65 7.33423 175.651 7.33423 175.652 7.33423H186.174C198.305 7.33423 208.174 17.2326 208.174 29.3991V132.122C208.174 144.289 198.305 154.187 186.174 154.186H167.519C166.464 154.186 165.468 154.675 164.822 155.509C164.176 156.343 163.951 157.429 164.215 158.451L171.372 186.213C171.832 187.999 170.628 189.011 170.248 189.279C169.872 189.544 168.529 190.329 167.022 189.309L117.664 155.87C116.039 154.769 114.142 154.187 112.18 154.187ZM175.649 0.508057H173.81H28.826C12.9315 0.508057 4.57764e-05 13.4682 4.57764e-05 29.3991V132.122C4.57764e-05 148.053 12.9315 161.013 28.826 161.013H103.674C103.692 161.013 103.71 161.014 103.728 161.014H112.179C112.772 161.014 113.344 161.189 113.835 161.521L163.193 194.96C164.847 196.08 166.732 196.639 168.615 196.639C170.557 196.64 172.497 196.045 174.18 194.86C177.506 192.516 178.998 188.453 177.982 184.51L171.924 161.013H186.174C202.069 161.013 215 148.053 215 132.122V29.3991C215 13.4682 202.069 0.508057 186.174 0.508057H175.649Z" fill="#73C7EC"/>
<path d="M103.71 154.187L103.72 156.187H103.71V154.187ZM175.652 7.33423L175.65 5.33423H175.652V7.33423ZM186.174 154.186V152.186H186.174L186.174 154.186ZM164.215 158.451L162.278 158.951L162.278 158.951L164.215 158.451ZM171.372 186.213L173.308 185.714L173.308 185.714L171.372 186.213ZM170.248 189.279L169.095 187.645L169.097 187.644L170.248 189.279ZM167.022 189.309L165.901 190.964L165.9 190.964L167.022 189.309ZM117.664 155.87L116.542 157.526L116.542 157.526L117.664 155.87ZM103.674 161.013V159.013H103.689L103.705 159.013L103.674 161.013ZM113.835 161.521L114.956 159.865L114.957 159.866L113.835 161.521ZM163.193 194.96L162.072 196.616L162.072 196.616L163.193 194.96ZM168.615 196.639V194.639H168.616L168.615 196.639ZM174.18 194.86L175.332 196.494L175.332 196.495L174.18 194.86ZM177.982 184.51L179.918 184.01L179.918 184.01L177.982 184.51ZM171.924 161.013L169.987 161.512L169.343 159.013H171.924V161.013ZM103.728 152.187H112.18V156.187H103.728V152.187ZM103.699 152.187C103.709 152.187 103.718 152.187 103.728 152.187V156.187C103.725 156.187 103.722 156.187 103.72 156.187L103.699 152.187ZM28.826 152.187H103.71V156.187H28.826V152.187ZM8.82622 132.122C8.82622 143.19 17.8056 152.187 28.826 152.187V156.187C15.5854 156.187 4.82622 145.388 4.82622 132.122H8.82622ZM8.82622 29.3991V132.122H4.82622V29.3991H8.82622ZM28.826 9.33423C17.8056 9.33423 8.82622 18.3312 8.82622 29.3991H4.82622C4.82622 16.1331 15.5854 5.33423 28.826 5.33423V9.33423ZM175.649 9.33423H28.826V5.33423H175.649V9.33423ZM175.655 9.33422C175.653 9.33423 175.651 9.33423 175.649 9.33423V5.33423C175.65 5.33423 175.65 5.33423 175.65 5.33423L175.655 9.33422ZM186.174 9.33422H175.652V5.33423H186.174V9.33422ZM206.174 29.3991C206.174 18.3316 197.194 9.33422 186.174 9.33422V5.33423C199.415 5.33423 210.174 16.1336 210.174 29.3991H206.174ZM206.174 132.122V29.3991H210.174V132.122H206.174ZM186.174 152.186C197.194 152.187 206.174 143.19 206.174 132.122H210.174C210.174 145.388 199.415 156.187 186.174 156.186L186.174 152.186ZM167.519 152.186H186.174V156.186H167.519V152.186ZM163.241 154.284C164.266 152.961 165.846 152.186 167.519 152.186V156.186C167.083 156.186 166.67 156.389 166.403 156.734L163.241 154.284ZM162.278 158.951C161.86 157.33 162.216 155.607 163.241 154.284L166.403 156.734C166.135 157.079 166.042 157.529 166.151 157.952L162.278 158.951ZM169.435 186.712L162.278 158.951L166.151 157.952L173.308 185.714L169.435 186.712ZM169.097 187.644C169.152 187.604 169.295 187.486 169.388 187.324C169.428 187.254 169.455 187.182 169.467 187.103C169.479 187.027 169.484 186.903 169.435 186.712L173.308 185.714C174.094 188.762 171.969 190.513 171.4 190.914L169.097 187.644ZM168.144 187.653C168.301 187.759 168.415 187.794 168.485 187.807C168.559 187.822 168.632 187.821 168.708 187.807C168.886 187.775 169.04 187.683 169.095 187.645L171.401 190.913C170.838 191.31 168.489 192.717 165.901 190.964L168.144 187.653ZM118.786 154.214L168.144 187.653L165.9 190.964L116.542 157.526L118.786 154.214ZM112.18 152.187C114.542 152.187 116.83 152.889 118.786 154.214L116.542 157.526C115.249 156.649 113.743 156.187 112.18 156.187V152.187ZM173.81 -1.49194H175.649V2.50806H173.81V-1.49194ZM28.826 -1.49194H173.81V2.50806H28.826V-1.49194ZM-1.99995 29.3991C-1.99995 12.3679 11.8227 -1.49194 28.826 -1.49194V2.50806C14.0403 2.50806 2.00005 14.5686 2.00005 29.3991H-1.99995ZM-1.99995 132.122V29.3991H2.00005V132.122H-1.99995ZM28.826 163.013C11.8227 163.013 -1.99995 149.153 -1.99995 132.122H2.00005C2.00005 146.953 14.0403 159.013 28.826 159.013V163.013ZM103.674 163.013H28.826V159.013H103.674V163.013ZM103.728 163.014C103.699 163.014 103.671 163.013 103.643 163.013L103.705 159.013C103.712 159.014 103.72 159.014 103.728 159.014V163.014ZM112.179 163.014H103.728V159.014H112.179V163.014ZM112.713 163.177C112.554 163.069 112.372 163.014 112.179 163.014V159.014C113.172 159.014 114.135 159.309 114.956 159.865L112.713 163.177ZM162.072 196.616L112.713 163.177L114.957 159.866L164.315 193.304L162.072 196.616ZM168.615 198.639C166.333 198.639 164.057 197.961 162.072 196.616L164.315 193.304C165.636 194.199 167.131 194.639 168.615 194.639V198.639ZM175.332 196.495C173.31 197.919 170.968 198.64 168.615 198.639L168.616 194.639C170.146 194.64 171.683 194.172 173.028 193.225L175.332 196.495ZM179.918 184.01C181.142 188.759 179.339 193.671 175.332 196.494L173.028 193.225C175.673 191.361 176.854 188.148 176.045 185.009L179.918 184.01ZM173.861 160.514L179.918 184.01L176.045 185.009L169.987 161.512L173.861 160.514ZM186.174 163.013H171.924V159.013H186.174V163.013ZM217 132.122C217 149.153 203.177 163.013 186.174 163.013V159.013C200.96 159.013 213 146.952 213 132.122H217ZM217 29.3991V132.122H213V29.3991H217ZM186.174 -1.49194C203.177 -1.49194 217 12.3679 217 29.3991H213C213 14.5686 200.96 2.50806 186.174 2.50806V-1.49194ZM175.649 -1.49194H186.174V2.50806H175.649V-1.49194Z" fill="#081D3C" mask="url(#path-1-inside-1_494_834)"/>
</svg>
