<svg width="19" height="19" viewBox="0 0 19 19" fill="none" xmlns="http://www.w3.org/2000/svg">
<path d="M9.24 0.514648C4.14526 0.514648 0 4.65991 0 9.75465C0 14.8494 4.14526 18.9946 9.24 18.9946C14.3347 18.9946 18.48 14.8494 18.48 9.75465C18.48 4.65991 14.3347 0.514648 9.24 0.514648ZM14.4042 7.32307L8.49895 13.182C8.15158 13.5294 7.59579 13.5525 7.22526 13.2052L4.09895 10.3568C3.72842 10.0094 3.70526 9.43044 4.02947 9.05991C4.37684 8.68938 4.95579 8.66623 5.32632 9.0136L7.80421 11.2831L13.0842 6.00307C13.4547 5.63254 14.0337 5.63254 14.4042 6.00307C14.7747 6.3736 14.7747 6.95254 14.4042 7.32307Z" fill="white"/>
</svg>
