<svg width="20" height="19" viewBox="0 0 20 19" fill="none" xmlns="http://www.w3.org/2000/svg">
<path d="M9.91972 0.514648C4.82498 0.514648 0.679718 4.65991 0.679718 9.75465C0.679718 14.8494 4.82498 18.9946 9.91972 18.9946C15.0145 18.9946 19.1597 14.8494 19.1597 9.75465C19.1597 4.65991 15.0145 0.514648 9.91972 0.514648ZM15.0839 7.32307L9.17867 13.182C8.8313 13.5294 8.27551 13.5525 7.90498 13.2052L4.77867 10.3568C4.40814 10.0094 4.38498 9.43044 4.70919 9.05991C5.05656 8.68938 5.63551 8.66623 6.00603 9.0136L8.48393 11.2831L13.7639 6.00307C14.1345 5.63254 14.7134 5.63254 15.0839 6.00307C15.4545 6.3736 15.4545 6.95254 15.0839 7.32307Z" fill="#73C7EC"/>
</svg>
