<svg width="14" height="14" viewBox="0 0 14 14" fill="none" xmlns="http://www.w3.org/2000/svg">
<path d="M5.77049 11.5302C2.59159 11.5302 0.00537109 8.94401 0.00537109 5.76511C0.00537109 2.58621 2.59159 0 5.77049 0C8.94939 0 11.5356 2.58621 11.5356 5.76511C11.5356 8.94401 8.94939 11.5302 5.77049 11.5302ZM5.77049 1.09291C3.19422 1.09291 1.09828 3.18885 1.09828 5.76511C1.09828 8.34138 3.19422 10.4373 5.77049 10.4373C8.34676 10.4373 10.4427 8.34138 10.4427 5.76511C10.4427 3.18885 8.34676 1.09291 5.77049 1.09291ZM13.8346 13.8399C14.048 13.6265 14.048 13.2805 13.8346 13.0671L11.3892 10.6217C11.1758 10.4083 10.8298 10.4083 10.6164 10.6217C10.403 10.8351 10.403 11.1812 10.6164 11.3945L13.0618 13.8399C13.1685 13.9466 13.3084 14 13.4482 14C13.5881 14 13.7279 13.9466 13.8346 13.8399Z" fill="white"/>
</svg>
