<svg width="30" height="24" viewBox="0 0 30 24" fill="none" xmlns="http://www.w3.org/2000/svg">
<path fill-rule="evenodd" clip-rule="evenodd" d="M29.0541 2.80218C28.243 3.98204 27.229 5.03286 26.0676 5.88088C26.086 6.13898 26.086 6.39707 26.086 6.65517C26.086 14.5271 20.0946 23.5973 9.14394 23.5973C5.77027 23.5973 2.63626 22.6202 0 20.9241C0.47932 20.9795 0.940204 20.9979 1.43796 20.9979C4.2217 20.9979 6.78422 20.0577 8.83054 18.4538C6.21272 18.3985 4.01891 16.684 3.26306 14.3243C3.63177 14.3796 4.00047 14.4165 4.38762 14.4165C4.92224 14.4165 5.45687 14.3427 5.95462 14.2137C3.22619 13.6606 1.17986 11.264 1.17986 8.36966V8.29592C1.97258 8.73837 2.89435 9.0149 3.87143 9.05177C2.26755 7.98252 1.21673 6.15741 1.21673 4.09265C1.21673 2.98653 1.5117 1.97258 2.02789 1.08769C4.95911 4.70102 9.36517 7.06075 14.3058 7.31884C14.2137 6.87639 14.1584 6.41551 14.1584 5.95462C14.1584 2.67313 16.8131 0 20.113 0C21.8275 0 23.376 0.718979 24.4637 1.88041C25.8095 1.62231 27.1 1.12456 28.243 0.442449C27.8005 1.8251 26.8603 2.98653 25.6252 3.72394C26.8235 3.5949 27.9849 3.26306 29.0541 2.80218Z" fill="#F5C744"/>
</svg>
